<?xml version="1.0" encoding="UTF-8" standalone="no"?>
<svg
   version="1.1"
   width="1080"
   height="1080"
   id="svg29"
   sodipodi:docname="logo-primary.svg"
   inkscape:version="1.4.3 (0d15f75, 2025-12-25)"
   xmlns:inkscape="http://www.inkscape.org/namespaces/inkscape"
   xmlns:sodipodi="http://sodipodi.sourceforge.net/DTD/sodipodi-0.dtd"
   xmlns:xlink="http://www.w3.org/1999/xlink"
   xmlns="http://www.w3.org/2000/svg"
   xmlns:svg="http://www.w3.org/2000/svg">
  <defs
     id="defs29">
    <inkscape:path-effect
       effect="bspline"
       id="path-effect32"
       is_visible="true"
       lpeversion="1.3"
       weight="33.333333"
       steps="2"
       helper_size="0"
       apply_no_weight="true"
       apply_with_weight="true"
       only_selected="false"
       uniform="false" />
    <rect
       x="358.1491"
       y="987.45501"
       width="377.58355"
       height="73.11054"
       id="rect31" />
  </defs>
  <sodipodi:namedview
     id="namedview29"
     pagecolor="#ffffff"
     bordercolor="#000000"
     borderopacity="0.25"
     inkscape:showpageshadow="2"
     inkscape:pageopacity="0.0"
     inkscape:pagecheckerboard="0"
     inkscape:deskcolor="#d1d1d1"
     showgrid="true"
     inkscape:zoom="1.0805556"
     inkscape:cx="470.59126"
     inkscape:cy="544.62725"
     inkscape:window-width="3440"
     inkscape:window-height="1369"
     inkscape:window-x="-8"
     inkscape:window-y="-8"
     inkscape:window-maximized="1"
     inkscape:current-layer="svg29">
    <inkscape:grid
       id="grid32"
       units="px"
       originx="0"
       originy="0"
       spacingx="1"
       spacingy="1"
       empcolor="#0099e5"
       empopacity="0.30196078"
       color="#0099e5"
       opacity="0.14901961"
       empspacing="5"
       enabled="true"
       visible="true" />
  </sodipodi:namedview>
  <path
     d="M0 0 C0.91188583 -0.00095673 1.82377167 -0.00191345 2.76329041 -0.00289917 C4.68374704 -0.00357732 6.60420602 -0.00174855 8.5246582 0.00244141 C11.45854854 0.007801 14.39228623 0.00248084 17.32617188 -0.00390625 C19.19661492 -0.00324552 21.06705787 -0.00196448 22.9375 0 C23.81156998 -0.00202423 24.68563995 -0.00404846 25.5861969 -0.00613403 C29.6889783 0.0096158 33.3832409 0.25039501 37.40234375 1.1328125 C39.59302567 1.26574722 41.78653095 1.35578893 43.98046875 1.4140625 C45.84445312 1.47013672 45.84445312 1.47013672 47.74609375 1.52734375 C50.36587407 1.59807782 52.98566594 1.66838533 55.60546875 1.73828125 C56.84296875 1.77566406 58.08046875 1.81304687 59.35546875 1.8515625 C61.05944824 1.89700195 61.05944824 1.89700195 62.79785156 1.94335938 C65.40234375 2.1328125 65.40234375 2.1328125 66.40234375 3.1328125 C68.69038542 3.34347618 70.98338197 3.50146091 73.27734375 3.6328125 C80.07480033 4.02363136 80.07480033 4.02363136 83.40234375 5.1328125 C86.23402693 5.43575632 89.0663721 5.64036308 91.90625 5.8515625 C94.40234375 6.1328125 94.40234375 6.1328125 96.40234375 7.1328125 C97.94181575 7.2655256 99.48431701 7.36373254 101.02734375 7.4453125 C112.3333099 8.39117111 123.39583007 12.0396133 134.21875 15.30078125 C137.59772052 16.18387416 140.94816133 16.64179769 144.40234375 17.1328125 C144.73234375 17.4628125 145.06234375 17.7928125 145.40234375 18.1328125 C146.94921875 18.3184375 146.94921875 18.3184375 148.52734375 18.5078125 C151.84779682 19.04336945 154.25489411 19.85890394 157.2734375 21.25 C161.07600645 22.82684511 165.04295532 23.90523788 168.98046875 25.09375 C176.3834841 27.34169758 183.50349045 29.60673192 190.40234375 33.1328125 C191.68821368 33.56703873 192.98083834 33.98145529 194.27734375 34.3828125 C198.86275166 35.853899 203.24272589 37.70967079 207.65234375 39.6328125 C208.33796387 39.92961914 209.02358398 40.22642578 209.72998047 40.53222656 C212.56832362 41.7833976 215.24190828 43.03392774 217.88671875 44.6640625 C220.02134546 45.91036629 221.85137102 46.70139379 224.16015625 47.515625 C228.82202855 49.19634689 232.98992996 51.54421447 237.27734375 54.0078125 C242.12216711 56.75257018 246.94306018 59.47046435 251.96484375 61.8828125 C255.9586758 63.8250185 259.54079713 66.15268935 263.1953125 68.66796875 C265.34069839 70.09189744 267.51409063 71.34421623 269.77734375 72.5703125 C273.40827977 74.54965461 276.94940632 76.64173156 280.46484375 78.8203125 C281.87443359 79.69236328 281.87443359 79.69236328 283.3125 80.58203125 C284.00214844 81.09378906 284.69179688 81.60554688 285.40234375 82.1328125 C285.40234375 82.7928125 285.40234375 83.4528125 285.40234375 84.1328125 C286.08683594 84.37 286.77132812 84.6071875 287.4765625 84.8515625 C291.00768403 86.39790144 294.06789358 88.43661316 297.21484375 90.6328125 C297.81232422 91.03628906 298.40980469 91.43976563 299.02539062 91.85546875 C300.52377986 92.89321032 301.96849989 94.00757047 303.40234375 95.1328125 C303.40234375 95.7928125 303.40234375 96.4528125 303.40234375 97.1328125 C304.13582031 97.39191406 304.86929688 97.65101563 305.625 97.91796875 C308.49391097 99.17286511 310.44120596 100.57075483 312.83984375 102.5703125 C315.79950496 105.00949677 318.76410057 107.42689029 321.8125 109.75390625 C328.27779037 114.70180545 334.30633253 119.72247339 339.92578125 125.6484375 C342.61036937 128.34149435 345.42895224 130.8139703 348.30126953 133.30322266 C358.23324867 141.95186914 367.44937496 150.98127632 375.859375 161.1171875 C377.87714828 163.51000005 379.90097747 165.71745347 382.15234375 167.8828125 C385.49464231 171.11262986 388.30216275 174.67156183 391.1640625 178.328125 C393.23489568 180.92299101 395.36462087 183.44671532 397.52905273 185.96289062 C401.87923449 191.02244567 405.96514019 196.11939496 409.7109375 201.65234375 C412.245397 205.3691608 414.93311325 208.9714744 417.60546875 212.58984375 C422.40234375 219.37846467 422.40234375 219.37846467 422.40234375 222.1328125 C423.06234375 222.1328125 423.72234375 222.1328125 424.40234375 222.1328125 C424.91023437 223.02742187 425.418125 223.92203125 425.94140625 224.84375 C434.09127818 239.20256101 434.09127818 239.20256101 443.10546875 253.02734375 C445.18340379 256.40085876 446.40234375 259.14778868 446.40234375 263.1328125 C447.06234375 263.1328125 447.72234375 263.1328125 448.40234375 263.1328125 C448.68956299 263.77307373 448.97678223 264.41333496 449.27270508 265.07299805 C450.58354185 267.99022394 451.89914351 270.90527705 453.21484375 273.8203125 C453.66666016 274.82771484 454.11847656 275.83511719 454.58398438 276.87304688 C455.02548828 277.84951172 455.46699219 278.82597656 455.921875 279.83203125 C456.52672729 281.17527466 456.52672729 281.17527466 457.14379883 282.5456543 C458.42375329 285.17682354 459.8893914 287.63032161 461.40234375 290.1328125 C462.21484809 292.09523993 462.98313712 294.07634908 463.71484375 296.0703125 C465.51895887 300.88855349 467.45547561 305.61105389 469.52734375 310.3203125 C471.62701588 315.15331741 473.34660993 319.91529226 474.765625 324.984375 C475.49611697 327.44922521 476.47715785 329.76910426 477.51953125 332.1171875 C481.24037094 340.61255598 483.93975494 348.86524036 485.71484375 357.97265625 C486.29580164 360.64308198 487.00111007 362.98663264 488.02734375 365.5078125 C489.54655102 369.51299531 489.95627659 372.89517446 490.40234375 377.1328125 C490.73234375 377.4628125 491.06234375 377.7928125 491.40234375 378.1328125 C491.90036842 380.88094863 492.35276501 383.62318973 492.77734375 386.3828125 C493.65759485 391.91885609 494.62504507 397.37270467 495.96484375 402.8203125 C497.44203596 408.88376115 498.24601161 414.92405368 498.97265625 421.11328125 C499.22751798 424.04711365 499.22751798 424.04711365 500.40234375 426.1328125 C500.60993036 428.59502034 500.77622133 431.04141853 500.90234375 433.5078125 C501.08231704 438.33445516 501.08231704 438.33445516 501.90234375 443.07543945 C502.44489688 445.30790782 502.59360329 447.35782632 502.68359375 449.65234375 C502.73966797 450.93915039 502.73966797 450.93915039 502.796875 452.25195312 C502.83167969 453.14076172 502.86648438 454.02957031 502.90234375 454.9453125 C502.97204149 456.70195359 503.04490113 458.45847239 503.12109375 460.21484375 C503.1665332 461.37850464 503.1665332 461.37850464 503.21289062 462.56567383 C503.37529516 465.25084043 503.37529516 465.25084043 503.91162109 468.35229492 C504.48622354 472.77902077 504.54591415 477.08154472 504.53515625 481.5390625 C504.53611298 482.42259399 504.5370697 483.30612549 504.53805542 484.21643066 C504.53873275 486.07544018 504.53690979 487.93445212 504.53271484 489.79345703 C504.52736027 492.62407795 504.53267507 495.45454021 504.5390625 498.28515625 C504.53840164 500.09895868 504.53712031 501.91276101 504.53515625 503.7265625 C504.53718048 504.56529907 504.53920471 505.40403564 504.54129028 506.26818848 C504.52263995 510.98809367 504.14166532 515.45906677 503.40234375 520.1328125 C503.28149379 521.77036066 503.18516295 523.41003026 503.12109375 525.05078125 C503.06501953 526.34338867 503.06501953 526.34338867 503.0078125 527.66210938 C502.93703577 529.44594518 502.86672931 531.22979971 502.796875 533.01367188 C502.75949219 533.87154297 502.72210937 534.72941406 502.68359375 535.61328125 C502.6381543 536.77186646 502.6381543 536.77186646 502.59179688 537.95385742 C502.40404392 540.11325835 501.937397 542.0370131 501.40234375 544.1328125 C501.14896093 547.60626859 500.96120383 551.07444081 500.796875 554.55273438 C500.50458956 560.03056669 500.50458956 560.03056669 499.40234375 561.1328125 C499.28981678 562.83947149 499.21482188 564.54858937 499.15234375 566.2578125 C498.50628078 575.82166277 496.1599571 585.04532127 494.01611328 594.36474609 C493.21509546 597.97729188 492.52149156 601.60720373 491.84741211 605.24536133 C491.40234375 607.1328125 491.40234375 607.1328125 490.40234375 608.1328125 C489.91004454 610.48457923 489.4576925 612.83219904 489.02734375 615.1953125 C487.96488813 620.79047354 486.53165451 625.85582496 484.40234375 631.1328125 C484.04807609 632.48165382 483.71498674 633.83621985 483.40234375 635.1953125 C482.6580731 638.36922703 481.54151912 641.17894499 480.1875 644.15234375 C479.21559158 646.60387394 478.56719901 649.08129991 477.90234375 651.6328125 C476.75741746 656.01573344 475.21605576 659.97638915 473.40234375 664.1328125 C472.99594676 665.60911177 472.60125564 667.0886567 472.21484375 668.5703125 C470.66168402 673.93356719 468.20270641 678.74468935 465.6574707 683.68530273 C463.05310794 688.76148322 460.68126114 693.9031549 458.40234375 699.1328125 C447.38340875 724.17995497 433.40748856 747.76682622 418.16796875 770.4765625 C416.35922545 773.12841496 416.35922545 773.12841496 414.77734375 776.0078125 C414.32359375 776.7090625 413.86984375 777.4103125 413.40234375 778.1328125 C412.74234375 778.1328125 412.08234375 778.1328125 411.40234375 778.1328125 C411.13292969 778.87660156 410.86351562 779.62039063 410.5859375 780.38671875 C409.44610865 783.03127215 408.2670888 784.84504661 406.46484375 787.0703125 C405.84480469 787.84375 405.22476563 788.6171875 404.5859375 789.4140625 C403.50505859 790.75984375 403.50505859 790.75984375 402.40234375 792.1328125 C401.53701652 793.24580815 400.67385693 794.36049137 399.8125 795.4765625 C394.96855306 801.73837577 390.04400935 807.8357336 384.66796875 813.65625 C382.83980037 815.65462717 381.0701081 817.68108759 379.30541992 819.73461914 C375.28137274 824.33714061 371.01483057 828.6645145 366.6875 832.98046875 C365.87292831 833.79599716 365.05835663 834.61152557 364.21910095 835.45176697 C362.50675182 837.16479258 360.79315533 838.87657215 359.07836914 840.5871582 C356.4723236 843.18784802 353.87165853 845.79383206 351.27148438 848.40039062 C349.59797676 850.07323736 347.92415893 851.74577384 346.25 853.41796875 C345.48204605 854.18794693 344.7140921 854.95792511 343.92286682 855.75123596 C330.48385744 869.1328125 330.48385744 869.1328125 327.40234375 869.1328125 C327.40234375 869.7928125 327.40234375 870.4528125 327.40234375 871.1328125 C325.72713977 872.53334339 323.98311283 873.85178962 322.21484375 875.1328125 C321.11133986 875.94053355 320.0084983 876.74916011 318.90625 877.55859375 C318.3302002 877.97963379 317.75415039 878.40067383 317.16064453 878.83447266 C314.29123346 880.953263 311.473172 883.13751395 308.65234375 885.3203125 C307.55095797 886.16819836 306.44940084 887.01586168 305.34765625 887.86328125 C303.67287815 889.15379329 301.99977907 890.44650912 300.33203125 891.74609375 C294.16082537 896.48803766 287.62508199 900.70259788 281.13232422 904.98583984 C278.91806634 906.4538872 276.724083 907.95122096 274.52734375 909.4453125 C271.0896399 911.73498909 267.56778049 913.7744883 263.9375 915.7421875 C260.97943611 917.36479265 258.06973859 919.06317465 255.15234375 920.7578125 C249.01481216 924.28700084 242.78780668 927.63977931 236.52734375 930.9453125 C235.64788086 931.41340332 234.76841797 931.88149414 233.86230469 932.36376953 C228.79750683 935.01899796 223.78013448 937.19513846 218.40234375 939.1328125 C217.57734375 939.6278125 216.75234375 940.1228125 215.90234375 940.6328125 C213.30223342 942.1928787 210.67828701 943.16714416 207.83203125 944.1875 C204.83229819 945.35459871 201.94229558 946.70542917 199.02734375 948.0703125 C190.79156144 951.9035568 182.84025951 955.08242575 174.04296875 957.35546875 C171.5796976 958.0806033 169.40420957 958.9688458 167.08984375 960.0703125 C158.19341733 964.22514979 148.38209957 966.20591641 138.84375 968.34765625 C134.87278925 969.25363027 130.9177812 970.21411911 126.96484375 971.1953125 C126.30242676 971.35773437 125.64000977 971.52015625 124.95751953 971.6875 C121.98534885 972.42884752 119.08492265 973.24067404 116.18359375 974.2265625 C113.77435231 975.01159623 111.8440444 975.40602101 109.33984375 975.5703125 C105.49402623 975.9246173 101.89893122 976.69729548 98.15234375 977.6328125 C92.41799347 979.02418607 86.87040453 979.62294726 80.984375 979.921875 C78.41709197 979.97006272 78.41709197 979.97006272 76.40234375 981.1328125 C73.77365934 981.34079632 71.15999113 981.50700457 68.52734375 981.6328125 C63.4186959 981.79819496 63.4186959 981.79819496 58.39922523 982.64245415 C54.98811136 983.48009434 51.48736625 983.27109166 47.99365234 983.26220703 C47.14772018 983.26395935 46.30178802 983.26571167 45.43022156 983.26751709 C42.63705386 983.27191471 39.84394958 983.26900548 37.05078125 983.265625 C35.11072782 983.26629851 33.17067448 983.26726894 31.23062134 983.26852417 C27.16708573 983.2699982 23.10357211 983.26785555 19.04003906 983.26318359 C13.82318566 983.25747889 8.60638362 983.26077187 3.38953209 983.26675606 C-0.61492299 983.27036312 -4.61936582 983.26922254 -8.62382126 983.26662827 C-10.5480182 983.26595979 -12.47221624 983.26678465 -14.3964119 983.26910782 C-17.08022274 983.27163752 -19.76394936 983.26778957 -22.44775391 983.26220703 C-23.24779343 983.26423126 -24.04783295 983.26625549 -24.87211609 983.26834106 C-30.36912476 983.24707824 -30.36912476 983.24707824 -32.59765625 982.1328125 C-34.02104072 981.99377092 -35.44984437 981.90758077 -36.87890625 981.8515625 C-38.14154297 981.79548828 -38.14154297 981.79548828 -39.4296875 981.73828125 C-40.75033203 981.68607422 -40.75033203 981.68607422 -42.09765625 981.6328125 C-43.83740825 981.56403753 -45.57700984 981.49130981 -47.31640625 981.4140625 C-48.4755957 981.36862305 -48.4755957 981.36862305 -49.65820312 981.32226562 C-51.59765625 981.1328125 -51.59765625 981.1328125 -53.59765625 980.1328125 C-56.71034916 979.81848727 -59.82383203 979.62191376 -62.9453125 979.4140625 C-65.59765625 979.1328125 -65.59765625 979.1328125 -66.59765625 978.1328125 C-68.23872867 977.92442235 -69.88621918 977.76529525 -71.53515625 977.6328125 C-76.37810222 977.24258952 -76.37810222 977.24258952 -78.59765625 976.1328125 C-80.86424782 975.86185374 -83.13046784 975.68793253 -85.40625 975.51171875 C-87.59765625 975.1328125 -87.59765625 975.1328125 -90.59765625 973.1328125 C-92.61424529 972.71764452 -92.61424529 972.71764452 -94.72265625 972.5703125 C-98.59765625 972.1328125 -98.59765625 972.1328125 -99.59765625 971.1328125 C-101.92861154 970.6392684 -104.25476212 970.18670603 -106.59765625 969.7578125 C-111.78646283 968.77326342 -116.72665983 967.55229814 -121.69140625 965.74609375 C-123.82611188 964.99416556 -123.82611188 964.99416556 -127.09765625 964.6953125 C-130.91142981 964.08238461 -133.73788925 962.81099471 -137.203125 961.17578125 C-140.47655337 959.7499976 -143.83616247 958.82223469 -147.265625 957.84765625 C-149.59765625 957.1328125 -149.59765625 957.1328125 -153.03515625 955.6328125 C-155.99573574 954.38625272 -158.626682 953.5842542 -161.72265625 952.8203125 C-167.16561741 951.39107236 -172.01757551 949.23099994 -177.08203125 946.80078125 C-180.86401717 945.00643904 -184.68958566 943.3469062 -188.53515625 941.6953125 C-196.03091254 938.44441033 -203.34132949 934.89084303 -210.59765625 931.1328125 C-211.19932617 930.82230957 -211.80099609 930.51180664 -212.42089844 930.19189453 C-221.41957383 925.53161261 -230.16399105 920.52449239 -238.80419922 915.23095703 C-240.53553063 914.17085239 -242.27159013 913.11848143 -244.0078125 912.06640625 C-258.19733499 903.42415835 -271.69779029 893.99154175 -284.80322266 883.79150391 C-289.0395301 880.51132965 -293.39941579 877.46265039 -297.8671875 874.5078125 C-298.72376953 873.8271875 -298.72376953 873.8271875 -299.59765625 873.1328125 C-299.59765625 872.4728125 -299.59765625 871.8128125 -299.59765625 871.1328125 C-300.25765625 871.1328125 -300.91765625 871.1328125 -301.59765625 871.1328125 C-301.59765625 870.4728125 -301.59765625 869.8128125 -301.59765625 869.1328125 C-302.1596875 868.875 -302.72171875 868.6171875 -303.30078125 868.3515625 C-305.86470204 866.99111473 -308.0499199 865.40492288 -310.34765625 863.6328125 C-311.146875 863.024375 -311.94609375 862.4159375 -312.76953125 861.7890625 C-313.3728125 861.2425 -313.97609375 860.6959375 -314.59765625 860.1328125 C-314.59765625 859.4728125 -314.59765625 858.8128125 -314.59765625 858.1328125 C-315.18933594 857.86726562 -315.78101563 857.60171875 -316.390625 857.328125 C-322.22741995 854.16695818 -326.5776666 848.11728814 -330.82421875 843.125 C-334.70273313 838.76807856 -338.974467 834.85161592 -343.27099609 830.91723633 C-360.54659962 815.03286116 -360.54659962 815.03286116 -364.59765625 806.1328125 C-365.25765625 806.1328125 -365.91765625 806.1328125 -366.59765625 806.1328125 C-367.87213768 804.55915703 -369.06664573 802.92044118 -370.22265625 801.2578125 C-372.9328591 797.43020232 -375.69594382 793.70479518 -378.66015625 790.0703125 C-382.55329923 785.24341762 -386.12333465 780.26789968 -389.59765625 775.1328125 C-390.2635376 774.14933838 -390.2635376 774.14933838 -390.94287109 773.14599609 C-397.38913944 763.60534869 -403.65356495 753.9954224 -409.59765625 744.1328125 C-410.33243738 742.94215496 -411.06814931 741.75207143 -411.8046875 740.5625 C-416.90213166 732.27629348 -421.4057908 723.81287253 -425.65234375 715.06298828 C-426.56451033 713.20049113 -427.49765641 711.35057061 -428.44140625 709.50390625 C-431.97194323 702.57445318 -435.19903673 695.58350687 -438.203125 688.41015625 C-439.41228803 685.56845378 -440.70158678 682.79223605 -442.03515625 680.0078125 C-445.50270644 672.45033132 -448.03427649 664.53024515 -450.72021484 656.67089844 C-451.55107736 654.26754655 -452.40570089 651.8746276 -453.2734375 649.484375 C-455.93591113 642.13698744 -458.34126125 634.90073202 -460.0546875 627.2578125 C-460.39752743 625.16292664 -460.39752743 625.16292664 -461.59765625 624.1328125 C-462.25689286 620.83286237 -462.84049492 617.52812148 -463.40429688 614.2109375 C-464.10502622 610.26071198 -465.08536528 606.86037344 -466.59765625 603.1328125 C-467.16335593 600.56957041 -467.68729005 598.02481015 -468.16015625 595.4453125 C-468.94206308 590.65501394 -468.94206308 590.65501394 -470.59765625 586.1328125 C-470.90885909 583.57403357 -471.10730291 581.01429638 -471.31640625 578.4453125 C-471.46901672 576.11012795 -471.46901672 576.11012795 -472.59765625 574.1328125 C-472.91414016 570.792149 -473.1089415 567.45063639 -473.31640625 564.1015625 C-473.41053687 561.2063324 -473.41053687 561.2063324 -474.59765625 559.1328125 C-476.87653708 547.93424967 -476.97521491 536.50973167 -477.25585938 525.12573242 C-477.30323242 523.30005737 -477.30323242 523.30005737 -477.3515625 521.4375 C-477.38745483 519.7975708 -477.38745483 519.7975708 -477.42407227 518.12451172 C-477.52157969 515.20392979 -477.52157969 515.20392979 -478.10253906 512.67089844 C-479.25498505 506.76319211 -478.79236923 500.5177475 -478.78515625 494.5078125 C-478.78521667 493.74270355 -478.7852771 492.9775946 -478.78533936 492.18930054 C-478.77204697 480.25413264 -478.40488105 468.36045938 -477.72265625 456.4453125 C-477.68345062 455.73808044 -477.644245 455.03084839 -477.60385132 454.30218506 C-477.16571528 446.58418962 -476.52658931 438.91163982 -475.58984375 431.23828125 C-475.50727325 430.55478104 -475.42470276 429.87128082 -475.33963013 429.16706848 C-474.72352243 424.38454485 -474.72352243 424.38454485 -473.59765625 422.1328125 C-473.3934669 420.13629441 -473.23243329 418.13521429 -473.09765625 416.1328125 C-472.70876736 410.35503472 -472.70876736 410.35503472 -471.59765625 408.1328125 C-471.44111163 406.67752734 -471.32190077 405.21812467 -471.22265625 403.7578125 C-470.76757136 398.84989696 -469.73730982 394.28235029 -468.48046875 389.5234375 C-467.4686746 385.63743166 -466.56340277 381.73262005 -465.66015625 377.8203125 C-463.15266135 367.08765679 -460.63483385 356.40926457 -456.59765625 346.1328125 C-455.9306082 343.79958817 -455.26400971 341.4662353 -454.59765625 339.1328125 C-453.64919331 336.1224736 -452.657472 333.12727189 -451.66015625 330.1328125 C-451.40814453 329.36453125 -451.15613281 328.59625 -450.89648438 327.8046875 C-449.34220094 323.12991174 -447.57384523 318.64448923 -445.59765625 314.1328125 C-444.83770022 312.15744734 -444.08766935 310.17823492 -443.34765625 308.1953125 C-438.21041285 294.7924745 -432.17611423 281.8823194 -425.59765625 269.1328125 C-425.03594727 268.03839844 -425.03594727 268.03839844 -424.46289062 266.921875 C-420.66053504 259.5344413 -416.90048296 252.24229754 -412.12109375 245.4296875 C-410.13902114 242.44133188 -408.40878582 239.3231312 -406.66015625 236.1953125 C-403.90900126 231.30895198 -400.99827603 226.64452906 -397.71484375 222.09765625 C-394.18491021 217.15444673 -390.79965195 212.11117111 -387.3918457 207.08325195 C-384.35554546 202.62568521 -381.23499327 198.2598864 -377.97485352 193.96337891 C-375.3387394 190.45946407 -372.84895984 186.84785018 -370.33203125 183.2578125 C-369.7596875 182.5565625 -369.18734375 181.8553125 -368.59765625 181.1328125 C-367.93765625 181.1328125 -367.27765625 181.1328125 -366.59765625 181.1328125 C-366.33984375 180.57078125 -366.08203125 180.00875 -365.81640625 179.4296875 C-364.45595848 176.86576671 -362.86976663 174.68054885 -361.09765625 172.3828125 C-360.48921875 171.58359375 -359.88078125 170.784375 -359.25390625 169.9609375 C-358.70734375 169.35765625 -358.16078125 168.754375 -357.59765625 168.1328125 C-356.93765625 168.1328125 -356.27765625 168.1328125 -355.59765625 168.1328125 C-355.33227051 167.5459668 -355.06688477 166.95912109 -354.79345703 166.35449219 C-353.5613981 164.06544844 -352.24799767 162.46950002 -350.46484375 160.5859375 C-349.83126953 159.91353027 -349.19769531 159.24112305 -348.54492188 158.54833984 C-347.86107422 157.83371582 -347.17722656 157.1190918 -346.47265625 156.3828125 C-345.76560547 155.63854004 -345.05855469 154.89426758 -344.33007812 154.12744141 C-339.30888479 148.8653995 -334.2277772 143.66362688 -329.09765625 138.5078125 C-328.46456543 137.87004883 -327.83147461 137.23228516 -327.17919922 136.57519531 C-322.81594804 132.22681235 -318.26059782 128.15566748 -313.59765625 124.1328125 C-312.15823789 122.84328398 -310.72033299 121.55206006 -309.28515625 120.2578125 C-288.5645283 101.83947654 -265.60374303 84.62121622 -241.5234375 70.84765625 C-238.69502194 69.18987997 -235.96172339 67.43345839 -233.22265625 65.6328125 C-228.08332171 62.32685088 -222.7492527 59.6202457 -217.2578125 56.94921875 C-214.16516966 55.43636034 -211.1489147 53.81046391 -208.1340332 52.14916992 C-201.45113064 48.47547081 -194.68182595 45.35630686 -187.58276367 42.56640625 C-183.39325668 40.91560937 -179.37990974 39.07148625 -175.3684082 37.02539062 C-162.63232953 30.60555006 -148.29640939 26.64113776 -134.76953125 22.2109375 C-132.78597026 21.53672219 -130.81767303 20.81342282 -128.87890625 20.01953125 C-126.59765625 19.1328125 -126.59765625 19.1328125 -123.34765625 18.6953125 C-120.4330671 18.25812413 -118.36014051 17.75037814 -115.66015625 16.7578125 C-110.76770205 15.03793952 -105.770382 14.16094118 -100.68066406 13.26049805 C-96.53805156 12.51991657 -92.48261316 11.64513866 -88.41015625 10.5703125 C-83.0554629 9.16736815 -77.69626286 8.31175873 -72.21484375 7.5625 C-69.62527215 7.27012012 -69.62527215 7.27012012 -67.59765625 6.1328125 C-59.87546944 4.63744198 -52.12218362 3.84882942 -44.27734375 3.37890625 C-41.49829733 3.22643938 -41.49829733 3.22643938 -38.59765625 2.1328125 C-36.89614195 1.99602859 -35.19043274 1.90837569 -33.484375 1.8515625 C-32.48341797 1.81417969 -31.48246094 1.77679688 -30.45117188 1.73828125 C-29.40638672 1.70347656 -28.36160156 1.66867188 -27.28515625 1.6328125 C-25.22643932 1.56346084 -23.16783567 1.4906441 -21.109375 1.4140625 C-20.19631592 1.38376953 -19.28325684 1.35347656 -18.3425293 1.32226562 C-15.58438519 1.18443808 -15.58438519 1.18443808 -12.85302734 0.62353516 C-8.55178108 -0.0248453 -4.34342288 -0.01008214 0 0 Z M-28.71875 9.0234375 C-29.67193619 9.10092224 -30.62512238 9.17840698 -31.60719299 9.25823975 C-36.9878127 9.74916183 -42.20851004 10.55839758 -47.49049377 11.6973114 C-50.01876568 12.21984595 -52.52471601 12.4990005 -55.09765625 12.6953125 C-58.47733831 12.93816047 -58.47733831 12.93816047 -61.59765625 14.1328125 C-64.41708841 14.44608274 -67.23743707 14.64311214 -70.06640625 14.8515625 C-72.58839629 14.98413862 -72.58839629 14.98413862 -74.59765625 16.1328125 C-75.92674614 16.31327083 -77.26147668 16.45339679 -78.59765625 16.5703125 C-87.18141005 16.95122938 -87.18141005 16.95122938 -94.59765625 20.1328125 C-96.7578481 20.58184114 -98.92644154 20.99053421 -101.09765625 21.3828125 C-107.00670544 22.50464732 -112.76780305 23.9267227 -118.53515625 25.6328125 C-119.21964844 25.83422852 -119.90414063 26.03564453 -120.609375 26.24316406 C-124.70990548 27.48087263 -128.70648747 28.90350751 -132.70678711 30.43212891 C-135.40661083 31.43258005 -138.15002908 32.25314652 -140.91015625 33.0703125 C-149.79892622 35.77692758 -158.25247191 38.92578583 -166.66796875 42.859375 C-169.8285574 44.23317753 -173.02059789 45.34232113 -176.28515625 46.4453125 C-183.72980634 49.04322747 -190.57504584 52.46147344 -197.55664062 56.08447266 C-199.58603484 57.12684332 -201.62723155 58.14038836 -203.67578125 59.14453125 C-212.51564633 63.47930131 -221.12977927 68.1010812 -229.59765625 73.1328125 C-230.30180664 73.54934082 -231.00595703 73.96586914 -231.73144531 74.39501953 C-241.00639459 79.90239823 -249.99259208 85.64156837 -258.6796875 92.0390625 C-261.59765625 94.1328125 -261.59765625 94.1328125 -264.01953125 95.5703125 C-267.53337802 97.69991661 -270.76088373 100.15504881 -274.03515625 102.6328125 C-274.73600342 103.16181152 -275.43685059 103.69081055 -276.15893555 104.23583984 C-278.30886615 105.86337779 -280.45426514 107.49667404 -282.59765625 109.1328125 C-283.55430176 109.86226074 -283.55430176 109.86226074 -284.53027344 110.60644531 C-291.59580795 116.0152338 -298.39105057 121.57681363 -304.90234375 127.6484375 C-307.00109722 129.58294069 -309.12445808 131.4561078 -311.28588867 133.31835938 C-315.43894582 136.9477584 -319.37888189 140.75272671 -323.28125 144.6484375 C-323.98105484 145.34491394 -324.68085968 146.04139038 -325.40187073 146.75897217 C-326.87118695 148.22326164 -328.33918407 149.68887585 -329.8059082 151.15576172 C-332.02079404 153.36846445 -334.2435593 155.57303676 -336.46679688 157.77734375 C-343.97404876 165.25501362 -351.10550262 172.74445864 -357.59765625 181.1328125 C-358.47186625 182.20307199 -359.34990276 183.27023685 -360.234375 184.33203125 C-363.90293019 188.78321155 -367.50571567 193.25641407 -370.9296875 197.8984375 C-372.28563757 199.714839 -373.65883083 201.51291566 -375.046875 203.3046875 C-375.48717041 203.8733252 -375.92746582 204.44196289 -376.38110352 205.02783203 C-377.25115217 206.14979104 -378.12264778 207.27063003 -378.99584961 208.39013672 C-381.69494457 211.87542248 -384.18246975 215.4464752 -386.59765625 219.1328125 C-387.39680748 220.31750743 -388.1976717 221.50104816 -389 222.68359375 C-394.92020773 231.44417564 -394.92020773 231.44417564 -400.20703125 240.59375 C-401.7550834 243.4202497 -403.39618183 246.18105266 -405.046875 248.94848633 C-414.21707509 264.3474691 -422.12495918 280.09037501 -429.40454102 296.4675293 C-430.65197044 299.25414419 -431.92717993 302.02712254 -433.203125 304.80078125 C-435.19160338 309.17033303 -437.00910161 313.56352112 -438.66015625 318.0703125 C-438.91128174 318.74707031 -439.16240723 319.42382812 -439.42114258 320.12109375 C-441.30075386 325.22487335 -443.04809279 330.36679922 -444.73046875 335.5390625 C-445.476672 337.77094971 -446.29117036 339.94690986 -447.16015625 342.1328125 C-448.78271726 346.34623706 -449.73554187 350.68881448 -450.78125 355.07421875 C-451.54866818 357.94928302 -452.50432869 360.61831507 -453.59765625 363.3828125 C-455.55357896 368.53663167 -456.58047636 373.73803497 -457.52124023 379.14599609 C-458.42001328 384.3055055 -459.5998194 389.33394022 -460.90625 394.40234375 C-462.71476891 401.54446081 -463.83982896 408.53055919 -464.3515625 415.8828125 C-464.59765625 418.1328125 -464.59765625 418.1328125 -465.59765625 420.1328125 C-466.29842838 424.85346842 -466.76251043 429.60302617 -467.27539062 434.34716797 C-467.60670427 437.21102305 -467.99756258 440.06252231 -468.39453125 442.91796875 C-472.73483997 476.17838619 -472.41625833 510.98024836 -467.98242188 544.21826172 C-467.61371961 547.01113458 -467.29106032 549.80476233 -466.98828125 552.60546875 C-466.31023358 559.9728622 -466.31023358 559.9728622 -464.59765625 567.1328125 C-464.2952659 569.99712114 -464.08999856 572.86201184 -463.87890625 575.734375 C-463.85480032 578.08231541 -463.85480032 578.08231541 -462.59765625 579.1328125 C-462.47390625 580.4115625 -462.35015625 581.6903125 -462.22265625 583.0078125 C-461.86722649 586.54544936 -461.21407512 589.78214649 -460.22265625 593.1953125 C-458.88598329 597.79940826 -457.97428952 602.41393679 -457.16015625 607.1328125 C-456.17987524 612.68687832 -454.78492569 617.77132391 -452.703125 623.01171875 C-450.93010688 628.01751904 -449.70227518 633.16730681 -448.43603516 638.3215332 C-447.21875442 643.16807673 -445.63314049 647.55167151 -443.59765625 652.1328125 C-442.59235929 654.86678388 -441.66189562 657.6255591 -440.72265625 660.3828125 C-438.71283656 666.18596312 -436.54877978 671.81187273 -433.87109375 677.34765625 C-432.76222693 679.77287724 -431.77774283 682.20064571 -430.80859375 684.68359375 C-428.41692919 690.71074468 -425.6609139 696.54277907 -422.84765625 702.3828125 C-422.31833496 703.48383301 -421.78901367 704.58485352 -421.24365234 705.71923828 C-417.84753723 712.71888849 -414.27979959 719.53427539 -410.31640625 726.2265625 C-408.70482897 728.95159317 -407.20369706 731.71029098 -405.72265625 734.5078125 C-395.52575396 753.32220558 -383.03088835 770.9346467 -369.92236328 787.80639648 C-368.06043754 790.206088 -366.28365937 792.60380781 -364.59765625 795.1328125 C-363.93765625 795.1328125 -363.27765625 795.1328125 -362.59765625 795.1328125 C-362.37078125 795.6484375 -362.14390625 796.1640625 -361.91015625 796.6953125 C-360.11548007 800.02828255 -358.0980061 803.27984921 -355.59765625 806.1328125 C-354.93765625 806.1328125 -354.27765625 806.1328125 -353.59765625 806.1328125 C-353.23607422 806.95458984 -353.23607422 806.95458984 -352.8671875 807.79296875 C-351.30038429 810.68070758 -349.37604024 813.03665307 -347.28515625 815.5703125 C-346.52589844 816.49714844 -345.76664062 817.42398438 -344.984375 818.37890625 C-342.62405269 821.10235507 -340.16752624 823.60577368 -337.59765625 826.1328125 C-336.0714445 827.67953832 -334.5468803 829.22789058 -333.0234375 830.77734375 C-331.31913749 832.50012572 -329.61470697 834.22277858 -327.91015625 835.9453125 C-327.04326172 836.82896484 -326.17636719 837.71261719 -325.28320312 838.62304688 C-324.45498047 839.45771484 -323.62675781 840.29238281 -322.7734375 841.15234375 C-322.01973877 841.91651611 -321.26604004 842.68068848 -320.48950195 843.46801758 C-318.76742384 845.35301961 -318.76742384 845.35301961 -316.59765625 845.1328125 C-316.59765625 845.7928125 -316.59765625 846.4528125 -316.59765625 847.1328125 C-315.04989627 848.73761529 -315.04989627 848.73761529 -313.03515625 850.3828125 C-311.94654297 851.30513672 -311.94654297 851.30513672 -310.8359375 852.24609375 C-310.09730469 852.86871094 -309.35867188 853.49132812 -308.59765625 854.1328125 C-307.59798828 855.02033203 -307.59798828 855.02033203 -306.578125 855.92578125 C-305.96582031 856.46847656 -305.35351562 857.01117187 -304.72265625 857.5703125 C-304.16835938 858.06402344 -303.6140625 858.55773437 -303.04296875 859.06640625 C-301.62879004 860.33071857 -301.62879004 860.33071857 -299.59765625 860.1328125 C-299.59765625 860.7928125 -299.59765625 861.4528125 -299.59765625 862.1328125 C-297.6935168 863.73422708 -295.78529863 865.22222901 -293.78515625 866.6953125 C-292.58869367 867.59352215 -291.39340098 868.49329206 -290.19921875 869.39453125 C-289.5949707 869.85005371 -288.99072266 870.30557617 -288.36816406 870.77490234 C-284.87292149 873.45561652 -281.50884925 876.29685174 -278.1328125 879.125 C-275.38279401 881.30298074 -272.5263549 883.2018024 -269.59765625 885.1328125 C-268.27623705 886.06245585 -266.95877779 886.99774391 -265.64453125 887.9375 C-258.1201332 893.31654419 -250.61917782 898.51301026 -242.59765625 903.1328125 C-241.32277898 903.91795033 -240.05187118 904.70957272 -238.78515625 905.5078125 C-237.82416016 906.10916016 -237.82416016 906.10916016 -236.84375 906.72265625 C-235.10413891 907.81482947 -233.36779643 908.91220983 -231.6328125 910.01171875 C-224.46301929 914.50456182 -217.20784934 918.44807181 -209.59765625 922.1328125 C-207.70363498 923.081358 -205.81333178 924.0370949 -203.92285156 924.99267578 C-186.50071381 933.77982386 -168.96925845 941.70730033 -150.49414062 948.04150391 C-147.32813104 949.13278306 -144.27541392 950.27500007 -141.20703125 951.62890625 C-136.83129719 953.45212878 -132.40986552 954.74027369 -127.84765625 956.0078125 C-126.93024658 956.2653833 -126.01283691 956.5229541 -125.06762695 956.78833008 C-122.24612374 957.57656647 -119.42226456 958.35578455 -116.59765625 959.1328125 C-115.74929199 959.36822754 -114.90092773 959.60364258 -114.02685547 959.84619141 C-104.2854078 962.5387453 -94.58820238 964.84272865 -84.625 966.5546875 C-81.59765625 967.1328125 -81.59765625 967.1328125 -79.59765625 968.1328125 C-78.25359612 968.38465489 -76.90152991 968.59461591 -75.546875 968.78125 C-74.7130127 968.89807129 -73.87915039 969.01489258 -73.02001953 969.13525391 C-72.11751465 969.25819824 -71.21500977 969.38114258 -70.28515625 969.5078125 C-68.38019427 969.77333662 -66.47524678 970.03896471 -64.5703125 970.3046875 C-63.09522217 970.50868164 -63.09522217 970.50868164 -61.59033203 970.71679688 C-56.79906003 971.38283762 -52.01098893 972.07101583 -47.22265625 972.7578125 C-44.73573263 973.11325368 -42.24881783 973.46856822 -39.76123047 973.81933594 C-37.90671489 974.08803352 -36.05632818 974.38496525 -34.20703125 974.6875 C-29.22012976 975.30276707 -24.24180403 975.45772595 -19.22265625 975.6328125 C-8.13380379 976.02265497 -8.13380379 976.02265497 -3.0859375 976.65625 C2.22080908 977.29610425 7.50074349 977.27895745 12.83984375 977.2578125 C13.81244141 977.26167969 14.78503906 977.26554687 15.78710938 977.26953125 C21.21381086 977.26228115 26.50774724 976.97989245 31.89916992 976.37792969 C36.36859385 975.94027226 40.85335409 975.84895135 45.33984375 975.6953125 C51.99910533 975.43405646 58.38553868 975.01763784 64.9140625 973.6015625 C67.86959504 973.04479028 70.77685599 972.83213316 73.77734375 972.6328125 C84.90365395 972.21151339 84.90365395 972.21151339 95.40234375 969.1328125 C96.85762891 968.97626788 98.31703158 968.85705702 99.77734375 968.7578125 C104.73287017 968.30408762 109.3313774 967.22508148 114.1328125 965.94921875 C117.70373327 965.05755514 121.28470092 964.37154196 124.90234375 963.6953125 C130.63283245 962.57959044 135.99516682 961.05125131 141.4921875 959.10546875 C144.52084408 958.09320635 147.54716886 957.31260087 150.65234375 956.5703125 C154.60559166 955.61643204 158.32459112 954.5107762 162.09765625 953.0078125 C165.22728346 951.81961505 168.40885107 950.79792127 171.58984375 949.7578125 C182.73716065 946.08265982 193.61585309 941.75559421 204.40234375 937.1328125 C205.3783252 936.71757324 205.3783252 936.71757324 206.37402344 936.29394531 C221.11290127 929.99673423 235.50331998 922.9450349 249.140625 914.49609375 C251.74422958 912.92673624 254.40732368 911.50026584 257.08984375 910.0703125 C260.84748027 908.04656436 264.27585159 905.88084075 267.6875 903.328125 C269.54839626 902.03100824 271.45657364 900.9991937 273.46484375 899.9453125 C279.57460405 896.63542532 285.09874861 892.47077675 290.69628906 888.37744141 C292.25630112 887.2393559 293.82498946 886.11318783 295.39453125 884.98828125 C301.56023928 880.56049942 307.50938053 875.91564136 313.40234375 871.1328125 C315.19276333 869.69375954 316.98441134 868.25623348 318.77734375 866.8203125 C319.56882812 866.18480469 320.3603125 865.54929687 321.17578125 864.89453125 C322.64822886 863.72948937 324.15419362 862.60549117 325.69140625 861.52734375 C326.25601563 861.06714844 326.820625 860.60695313 327.40234375 860.1328125 C327.40234375 859.4728125 327.40234375 858.8128125 327.40234375 858.1328125 C327.94632813 857.90722656 328.4903125 857.68164062 329.05078125 857.44921875 C332.13874494 855.72057463 334.44689349 853.48731106 337.02734375 851.0703125 C342.20789931 846.23003472 342.20789931 846.23003472 344.40234375 845.1328125 C344.40234375 844.4728125 344.40234375 843.8128125 344.40234375 843.1328125 C345.24539063 842.77703125 345.24539063 842.77703125 346.10546875 842.4140625 C348.92128417 840.84333553 350.88189791 838.91809786 353.15234375 836.6328125 C354.35117188 835.44171875 354.35117188 835.44171875 355.57421875 834.2265625 C357.62157984 832.34497788 357.62157984 832.34497788 357.40234375 830.1328125 C358.25892578 829.78089844 358.25892578 829.78089844 359.1328125 829.421875 C361.93179425 827.83209191 363.60127325 825.9329751 365.71484375 823.5078125 C366.4934375 822.61835937 367.27203125 821.72890625 368.07421875 820.8125 C368.8425 819.92820312 369.61078125 819.04390625 370.40234375 818.1328125 C371.10875 817.35164062 371.81515625 816.57046875 372.54296875 815.765625 C373.1771875 815.06179688 373.81140625 814.35796875 374.46484375 813.6328125 C375.03332031 813.00375 375.60179687 812.3746875 376.1875 811.7265625 C377.60441688 810.20170787 377.60441688 810.20170787 377.40234375 808.1328125 C378.06234375 808.1328125 378.72234375 808.1328125 379.40234375 808.1328125 C381.13877665 806.26092192 381.13877665 806.26092192 382.96484375 803.8203125 C385.89102953 800.06336512 388.85785495 796.35714132 391.90234375 792.6953125 C398.18969918 785.025171 403.89063384 776.94214439 409.546875 768.80078125 C410.91101823 766.83928688 412.28484004 764.88451464 413.6640625 762.93359375 C417.4323803 757.58486252 421.04177655 752.25078639 424.1171875 746.46484375 C425.65160247 743.6805102 427.33471199 741.01142603 429.02734375 738.3203125 C437.31483554 724.87443798 444.61857486 711.01285011 451.27734375 696.6953125 C451.81254639 695.54732178 452.34774902 694.39933105 452.89916992 693.21655273 C455.94283568 686.58879286 458.72447984 679.91072213 461.27978516 673.07958984 C462.41999542 670.08647591 463.64494752 667.14088678 464.90234375 664.1953125 C470.73885885 650.29013547 475.38436528 636.0243776 478.62109375 621.30078125 C479.3766487 618.23700594 480.33369648 615.34992784 481.40234375 612.3828125 C483.66386763 605.91884002 484.71407739 599.36385174 485.7890625 592.625 C486.40234375 589.1328125 486.40234375 589.1328125 487.40234375 587.1328125 C487.67769493 585.56576153 487.91104674 583.99119511 488.12109375 582.4140625 C488.24871094 581.48207031 488.37632812 580.55007813 488.5078125 579.58984375 C488.63800781 578.61402344 488.76820313 577.63820313 488.90234375 576.6328125 C489.15951603 574.70529352 489.4197825 572.77818406 489.68359375 570.8515625 C489.79767578 569.99498047 489.91175781 569.13839844 490.02929688 568.25585938 C490.40234375 566.1328125 490.40234375 566.1328125 491.40234375 564.1328125 C491.68526942 560.79159507 491.84934399 557.45008457 492.0234375 554.1015625 C492.3106952 551.09276017 492.73287724 548.39462246 493.3671875 545.4609375 C499.80829401 514.56699536 502.50429321 464.43866087 492.40234375 434.1328125 C492.09299797 430.51948197 491.8928224 426.90555919 491.68359375 423.28515625 C491.60512036 420.23339925 491.60512036 420.23339925 490.40234375 418.1328125 C490.15041111 416.68284823 489.9404987 415.22543652 489.75390625 413.765625 C489.63732666 412.88616211 489.52074707 412.00669922 489.40063477 411.10058594 C489.27744873 410.1624707 489.1542627 409.22435547 489.02734375 408.2578125 C488.09232982 401.44417762 487.03896195 394.80250037 485.21875 388.16015625 C484.37319294 385.02471739 483.64102928 381.87639234 482.91943359 378.71069336 C481.56874412 372.79329597 480.15638486 367.00804323 478.11328125 361.28515625 C477.25248344 358.67911454 476.61003858 356.05031154 475.96484375 353.3828125 C473.79792767 344.52328581 471.35374038 335.89671783 467.46484375 327.6328125 C466.09336528 324.40580434 465.03641694 321.09274725 463.96484375 317.7578125 C460.81965691 308.07063704 456.45149149 299.17322306 451.84594727 290.11303711 C450.36138532 287.16461671 449.00476611 284.26599794 447.96484375 281.1328125 C446.42136173 276.68228153 443.96042091 272.73576714 441.58618164 268.69189453 C439.16198017 264.53974032 436.99127846 260.33899822 434.90234375 256.0078125 C432.08347984 250.26017484 428.84499527 245.011116 425.19921875 239.75390625 C423.49183604 237.26335451 421.94390866 234.72830443 420.40234375 232.1328125 C410.52427907 216.45425636 399.73568278 201.66657042 388.09375 187.25390625 C386.95235308 185.82254706 385.856095 184.3541743 384.8046875 182.85546875 C384.34191406 182.28699219 383.87914062 181.71851563 383.40234375 181.1328125 C382.74234375 181.1328125 382.08234375 181.1328125 381.40234375 181.1328125 C381.14533691 180.56868652 380.88833008 180.00456055 380.62353516 179.42333984 C374.77206419 168.44802984 364.09031593 159.51261185 355.37402344 150.84375 C353.03217162 148.51261827 350.70120524 146.17098542 348.37109375 143.828125 C340.68761678 136.13774786 333.0019556 128.79913389 324.40234375 122.1328125 C323.30431633 121.22283666 322.21091321 120.30721108 321.125 119.3828125 C315.32370358 114.4759891 309.40059532 109.81452771 303.2890625 105.30078125 C300.4977187 103.2044405 297.7909924 101.03108621 295.08984375 98.8203125 C291.99293136 96.32122181 288.97393325 94.19329815 285.4453125 92.32421875 C282.48194059 90.59605731 279.70645806 88.60429506 276.90234375 86.6328125 C272.50592678 83.55173221 268.11208864 80.70984272 263.40234375 78.1328125 C261.96252286 77.26163683 260.52531968 76.38612913 259.08984375 75.5078125 C244.75361034 66.91898798 230.03484969 59.41328972 214.9050293 52.32373047 C212.61866638 51.23575092 210.35799936 50.10936722 208.1015625 48.9609375 C204.91246688 47.35344562 201.69058682 46.00275261 198.33984375 44.7578125 C193.45991806 42.92006528 188.61180178 41.02313869 183.77734375 39.0703125 C174.74731582 35.45026954 165.93082307 32.08258197 156.421875 29.94140625 C154.04033618 29.30365912 151.86254413 28.58041317 149.5703125 27.69921875 C145.40707653 26.10001998 141.19911665 24.82107934 136.90234375 23.6328125 C136.13277344 23.41850586 135.36320313 23.20419922 134.5703125 22.98339844 C127.92547978 21.18081084 121.24869666 19.8684997 114.46484375 18.7109375 C111.40234375 18.1328125 111.40234375 18.1328125 109.40234375 17.1328125 C107.90654771 16.93188467 106.40537651 16.76945184 104.90234375 16.6328125 C100.62456597 16.24392361 100.62456597 16.24392361 98.40234375 15.1328125 C96.88476655 14.97306753 95.36267796 14.85545988 93.83984375 14.7578125 C85.14387636 14.04370657 76.50723675 12.42016923 67.97422791 10.62078857 C51.01773497 7.4035508 33.09430363 7.810816 15.90893555 7.87207031 C12.33820677 7.88281743 8.76797965 7.87207956 5.19726562 7.859375 C-6.14418616 7.85197266 -17.41158776 8.10073761 -28.71875 9.0234375 Z "
     fill="#000000"
     transform="translate(526.59765625,60.8671875)"
     id="path1" />
  <path
     d="M0 0 C0.87140625 -0.00128906 1.7428125 -0.00257813 2.640625 -0.00390625 C3.54296875 -0.00003906 4.4453125 0.00382813 5.375 0.0078125 C6.27734375 0.00394531 7.1796875 0.00007812 8.109375 -0.00390625 C9.41648437 -0.00197266 9.41648437 -0.00197266 10.75 0 C11.54148437 0.00112793 12.33296875 0.00225586 13.1484375 0.00341797 C15.35308146 0.13153873 17.24609357 0.57125912 19.375 1.1328125 C21.706773 1.28415354 24.04055392 1.40568048 26.375 1.5078125 C33.33120759 1.90138519 39.70549101 3.14856802 46.375 5.1328125 C47.49261719 5.45636719 48.61023438 5.77992188 49.76171875 6.11328125 C58.92558171 8.84049702 58.92558171 8.84049702 63.0625 10.6953125 C66.57301169 12.2187421 70.06719535 13.27144542 73.75 14.2890625 C76.41126602 15.14446944 78.933518 16.20858338 81.4921875 17.33007812 C84.74161767 18.71546796 88.06041612 19.91365521 91.375 21.1328125 C95.32608462 22.586085 99.25174968 24.05517899 103.11328125 25.734375 C105.59715898 26.79931898 107.98739991 27.71626477 110.5625 28.5078125 C119.70656136 31.49929295 128.39896751 35.56595389 137.07739258 39.68432617 C140.24038632 41.1756096 143.37798774 42.56539821 146.6875 43.6953125 C150.64220044 45.23697538 153.94094193 47.22253556 157.53125 49.4609375 C160.77220336 51.36633315 164.11629171 53.00233725 167.5 54.6328125 C172.23227729 56.93049999 176.430664 59.44086826 180.53125 62.7421875 C182.50237566 64.22888397 184.50548489 65.35533973 186.6875 66.5078125 C191.21299854 68.94046103 195.25129945 71.84330374 199.3671875 74.91015625 C201.46062042 76.45712162 203.55718718 77.96760042 205.6953125 79.44921875 C213.82803205 85.10047796 221.4048158 91.19155471 228.81884766 97.75585938 C230.18848108 98.96777222 231.56808931 100.1683923 232.94921875 101.3671875 C238.31295877 106.08373244 243.4218796 111.05039065 248.5 116.0703125 C249.17667725 116.73393799 249.85335449 117.39756348 250.55053711 118.08129883 C251.17581299 118.70544678 251.80108887 119.32959473 252.4453125 119.97265625 C253.01008301 120.53331787 253.57485352 121.09397949 254.15673828 121.67163086 C255.375 123.1328125 255.375 123.1328125 255.375 125.1328125 C256.035 125.1328125 256.695 125.1328125 257.375 125.1328125 C259.02416002 127.05633004 260.55165479 128.9795738 262.0625 131.0078125 C262.73406128 131.89593628 262.73406128 131.89593628 263.41918945 132.80200195 C266.6126759 137.04872645 269.71168991 141.3560757 272.72265625 145.734375 C273.86050082 147.38599809 275.01522109 149.02607994 276.18359375 150.65625 C279.47879046 155.26243895 282.46218616 159.8792137 285.13671875 164.87109375 C286.43337039 167.23942592 287.8302035 169.52391341 289.25 171.8203125 C292.0160646 176.38786532 294.41702472 181.09274608 296.76464844 185.88720703 C298.56766213 189.5599758 300.47821643 193.13904704 302.5 196.6953125 C305.23281649 201.62895721 307.2645548 206.70011704 309.19921875 211.9921875 C310.01925382 214.18258017 310.902292 216.34996642 311.83203125 218.49609375 C313.51902573 222.47227567 314.96472972 226.49007738 316.375 230.5703125 C316.87419261 232.00679125 317.37419016 233.44299053 317.875 234.87890625 C318.12056641 235.58370117 318.36613281 236.28849609 318.61914062 237.01464844 C319.37147293 239.12292851 320.16553451 241.21142935 320.96875 243.30078125 C322.17605013 246.4970612 323.0996947 249.67584566 323.875 253.0078125 C324.78194955 256.77259788 325.74440986 260.49145208 326.875 264.1953125 C331.41533261 279.10672064 331.41533261 279.10672064 332.0625 286.7109375 C332.43960094 289.63346982 333.15054097 292.40177208 333.875 295.2578125 C335.38459945 301.48674226 335.88039218 307.44448437 336.1640625 313.8203125 C336.2847845 316.99328506 336.2847845 316.99328506 336.88009644 319.49278259 C337.40356267 322.28517815 337.50202605 324.84602414 337.50439453 327.68579102 C337.50754669 328.77364395 337.51069885 329.86149689 337.51394653 330.98231506 C337.51091019 332.72936989 337.51091019 332.72936989 337.5078125 334.51171875 C337.50924759 336.31805031 337.50924759 336.31805031 337.51071167 338.16087341 C337.51139145 340.70352226 337.50955123 343.24617286 337.50537109 345.78881836 C337.50001539 349.68412157 337.50532535 353.57930972 337.51171875 357.47460938 C337.51105802 359.94531275 337.50977698 362.41601606 337.5078125 364.88671875 C337.50983673 366.0534462 337.51186096 367.22017365 337.51394653 368.42225647 C337.51079437 369.50695724 337.50764221 370.59165802 337.50439453 371.70922852 C337.50320114 373.13888695 337.50320114 373.13888695 337.50198364 374.59742737 C337.38467676 376.93960409 336.98475302 378.88100338 336.375 381.1328125 C336.19713553 383.5890361 336.05589937 386.04800525 335.9375 388.5078125 C334.78169627 409.72611623 334.78169627 409.72611623 332.375 412.1328125 C332.21281413 413.73364711 332.09650583 415.33917978 332 416.9453125 C331.47420842 423.23863324 330.00198893 429.04773057 328.375 435.1328125 C328.04472049 436.47701999 327.7180788 437.82212503 327.39453125 439.16796875 C325.74844946 445.99480963 323.98769944 452.6010639 321.375 459.1328125 C320.9109375 460.8034375 320.9109375 460.8034375 320.4375 462.5078125 C316.80251637 474.90952136 310.04160807 491.35681077 299 498.8828125 C294.18481868 500.54321985 290.31646674 500.04753069 285.375 499.1328125 C285.375 498.4728125 285.375 497.8128125 285.375 497.1328125 C284.055 496.4728125 282.735 495.8128125 281.375 495.1328125 C281.375 494.4728125 281.375 493.8128125 281.375 493.1328125 C280.715 493.1328125 280.055 493.1328125 279.375 493.1328125 C278.715 492.1428125 278.055 491.1528125 277.375 490.1328125 C275.63638963 487.94536207 274.80973302 487.21990426 272.03515625 486.6640625 C267.04448455 486.60402434 263.0687283 487.44307031 258.375 489.1328125 C241.74861963 493.39008637 224.4097526 491.40336571 207.7421875 488.63305664 C196.37251474 486.80892744 185.05977536 486.41665222 173.56030273 486.2746582 C171.375 486.1328125 171.375 486.1328125 169.375 485.1328125 C166.91806092 484.92927908 164.52257347 484.80940603 162.0625 484.7578125 C160.74636719 484.70882813 159.43023438 484.65984375 158.07421875 484.609375 C153.45178408 485.26344706 152.28117475 486.56208584 149.375 490.1328125 C148.65699219 491.00679687 147.93898438 491.88078125 147.19921875 492.78125 C146.49410156 493.68101562 145.78898437 494.58078125 145.0625 495.5078125 C134.64558882 508.22813309 134.64558882 508.22813309 127.1875 509.1328125 C123.79146913 509.2531649 120.65503454 509.11682286 117.375 508.1328125 C117.375 507.4728125 117.375 506.8128125 117.375 506.1328125 C116.818125 505.9471875 116.26125 505.7615625 115.6875 505.5703125 C109.03603197 501.43561616 107.15050096 494.30699118 105.375 487.1328125 C101.85465244 486.55806188 98.5088248 486.1328125 94.9375 486.1328125 C92.08965614 486.1328125 89.98563398 485.8694923 87.25 485.3203125 C83.34693101 484.70310271 83.34693101 484.70310271 80.875 487.1328125 C78.0207957 490.55785766 76.32679225 493.91430716 74.5 497.9453125 C70.66170707 505.99523054 66.61710213 512.99355355 58.375 517.1328125 C51.48977918 518.28676012 45.40379862 517.61023579 39.5234375 513.7890625 C26.47793819 503.73216848 20.41294755 490.05516859 14.375 475.1328125 C13.523099 473.06937565 12.66902844 471.00683281 11.8125 468.9453125 C11.40773438 467.96433594 11.00296875 466.98335937 10.5859375 465.97265625 C9.43759779 463.27961441 8.1997549 460.64889997 6.9375 458.0078125 C1.81734816 446.80144244 -1.72784582 434.92195594 -4.24438477 422.87841797 C-5.93530169 414.97973745 -5.93530169 414.97973745 -10.375 408.4453125 C-12.326279 407.30706641 -14.28617408 406.18667827 -16.25 405.0703125 C-19.625 403.1328125 -19.625 403.1328125 -21.625 401.1328125 C-22.07421875 399.06640625 -22.07421875 399.06640625 -22.3125 396.5703125 C-22.39886719 395.76464844 -22.48523438 394.95898438 -22.57421875 394.12890625 C-22.7222308 385.39619528 -20.6398733 379.1545199 -16.6875 371.3828125 C-15.78140999 369.5552533 -14.8764246 367.72714593 -13.97265625 365.8984375 C-13.36949585 364.70395996 -13.36949585 364.70395996 -12.75415039 363.48535156 C-10.96872548 359.76549115 -9.49591535 356.10607203 -8.625 352.0703125 C-8.45484375 351.28527344 -8.2846875 350.50023437 -8.109375 349.69140625 C-7.78207308 347.96251307 -7.50188059 346.22413772 -7.265625 344.48046875 C-5.00897078 328.02945947 1.73895368 314.008887 11.20703125 300.5234375 C12.59041148 298.18648574 12.59041148 298.18648574 12.2265625 295.5390625 C8.80639243 285.87472871 -3.01354835 278.53463007 -10.625 272.1328125 C-11.44000977 271.44010254 -11.44000977 271.44010254 -12.27148438 270.73339844 C-17.50992272 266.28307341 -22.54848907 262.34304469 -28.625 259.1328125 C-29.89929834 258.30478742 -31.16994124 257.47111829 -32.4375 256.6328125 C-36.94298584 253.80719232 -41.64175101 251.95176702 -46.625 250.1328125 C-47.74648438 249.71902344 -48.86796875 249.30523437 -50.0234375 248.87890625 C-55.12809894 247.02417569 -60.17196272 245.21937988 -65.4375 243.8828125 C-79.3257045 239.85891219 -92.24746317 230.70455147 -103.44921875 221.84375 C-105.44123765 220.27731503 -107.46046766 218.76150029 -109.5 217.2578125 C-113.68948706 214.13021523 -117.72204369 210.82335897 -121.75390625 207.49609375 C-123.66910048 205.91964135 -125.59365806 204.3544964 -127.52734375 202.80078125 C-144.1644338 189.40438638 -144.1644338 189.40438638 -145.625 181.1328125 C-146.0747419 175.49304912 -145.27934825 171.33228882 -141.6875 166.8828125 C-137.53400211 162.6786622 -132.8252158 159.87055129 -127.625 157.1328125 C-126.67238281 156.6171875 -125.71976562 156.1015625 -124.73828125 155.5703125 C-117.89374656 151.99147083 -110.9943845 149.4034912 -103.625 147.1328125 C-102.68527344 146.79765625 -101.74554688 146.4625 -100.77734375 146.1171875 C-96.40853232 144.75294899 -91.96117588 144.03815977 -87.45898438 143.27734375 C-83.6051963 142.59661765 -80.23157005 141.61716943 -76.625 140.1328125 C-68.60166152 138.37913995 -60.45835855 137.82718338 -52.27441406 137.47436523 C-49.16749067 137.33277933 -46.59387879 137.12243876 -43.625 136.1328125 C-41.58463694 136.00564306 -39.54257499 135.90481619 -37.5 135.8203125 C-28.92815178 135.16386685 -23.341813 133.25057288 -17.25 127.0703125 C-13.74589079 122.86952016 -12.53557354 119.12865522 -11.40234375 113.84765625 C-10.31713686 110.05761208 -8.34271374 107.25743553 -6.02734375 104.10546875 C-3.28933058 100.28640865 -3.28933058 100.28640865 -2.67578125 95.73046875 C-3.95334054 92.23426741 -6.17053648 90.08000381 -8.8125 87.5703125 C-9.28236328 87.10173828 -9.75222656 86.63316406 -10.23632812 86.15039062 C-13.46079785 83.00510297 -16.8333186 80.54485891 -20.625 78.1328125 C-21.27903809 77.67366455 -21.93307617 77.2145166 -22.60693359 76.74145508 C-28.43126174 72.68445992 -34.48857959 69.69229271 -40.9375 66.7578125 C-63.58576117 56.16040743 -63.58576117 56.16040743 -70.625 46.1328125 C-71.09679687 45.51792969 -71.56859375 44.90304688 -72.0546875 44.26953125 C-75.68965697 39.14566186 -76.80937644 34.40161137 -76.625 28.1328125 C-75.47788563 22.97079783 -72.15386972 19.9449749 -67.9296875 16.91796875 C-60.83652657 12.56471508 -52.77720311 10.33993013 -44.890625 7.85986328 C-42.53921696 7.10528428 -40.20884032 6.29927508 -37.875 5.4921875 C-34.77114932 4.45239752 -31.90836877 3.73061252 -28.625 3.5078125 C-25.82919702 3.49299476 -25.82919702 3.49299476 -23.625 2.1328125 C-21.18307899 1.92072768 -18.75911422 1.75640199 -16.3125 1.6328125 C-11.45468344 1.45867118 -11.45468344 1.45867118 -6.68676758 0.62353516 C-4.39448874 0.07794836 -2.35499579 0.00335606 0 0 Z M-28.625 12.1328125 C-29.635625 12.2565625 -30.64625 12.3803125 -31.6875 12.5078125 C-35.20424096 13.06602535 -38.11442813 14.00018337 -41.40234375 15.32421875 C-43.88472989 16.22730123 -46.36963918 16.82800314 -48.9375 17.4453125 C-56.17646442 19.36358759 -64.63932988 22.4029105 -68.625 29.1328125 C-68.76976265 36.66047007 -64.59018772 40.89634164 -59.7890625 46.13671875 C-53.7079127 52.08972172 -46.51011291 55.4252517 -38.92822266 59.02050781 C-34.71913328 61.05322047 -30.57901154 63.21656944 -26.4375 65.3828125 C-25.23504639 66.0013208 -25.23504639 66.0013208 -24.00830078 66.63232422 C-19.8505635 68.80690992 -16.18292269 71.03233701 -12.625 74.1328125 C-11.97917969 74.67421875 -11.33335937 75.215625 -10.66796875 75.7734375 C4.33342089 88.78516915 4.33342089 88.78516915 7.375 95.1328125 C7.39046521 97.96810132 6.95513567 100.32882341 6.375 103.1328125 C10.63841165 106.51413898 14.71572093 106.62443669 19.94921875 106.921875 C22.375 107.1328125 22.375 107.1328125 24.375 108.1328125 C26.03772703 108.33503606 27.70554185 108.49692637 29.375 108.6328125 C34.15277778 109.02170139 34.15277778 109.02170139 36.375 110.1328125 C37.83672775 110.38475374 39.30584549 110.59466147 40.77734375 110.78125 C41.66228516 110.89782959 42.54722656 111.01440918 43.45898438 111.13452148 C44.40064453 111.25770752 45.34230469 111.38089355 46.3125 111.5078125 C53.87346812 112.54572953 61.08940081 113.81723446 68.375 116.1328125 C69.88513672 116.54466797 69.88513672 116.54466797 71.42578125 116.96484375 C82.77159556 120.15797712 92.93071099 125.04959575 102.375 132.1328125 C103.035 132.1328125 103.695 132.1328125 104.375 132.1328125 C104.375 132.7928125 104.375 133.4528125 104.375 134.1328125 C107.19009993 136.4101626 107.19009993 136.4101626 110.375 136.1328125 C110.375 136.7928125 110.375 137.4528125 110.375 138.1328125 C116.5502345 141.64043651 122.5818797 145.0002529 129.375 147.1328125 C130.6125 147.5246875 131.85 147.9165625 133.125 148.3203125 C146.99535054 151.47144068 161.25189362 147.71142115 173.30053711 140.6081543 C186.27172215 132.37491385 195.9175384 120.29739987 199.375 105.1328125 C199.66019491 102.08487797 199.70018537 99.06752404 199.6875 96.0078125 C199.70361328 95.22277344 199.71972656 94.43773437 199.73632812 93.62890625 C199.74024375 88.98497507 199.4438502 85.85534155 196.375 82.1328125 C194.46495124 80.61572282 194.46495124 80.61572282 192.1875 79.4453125 C187.56801244 76.82580716 183.05486041 74.08730514 178.5625 71.2578125 C177.17207566 70.3877001 175.78145112 69.51790754 174.390625 68.6484375 C171.91865016 67.10139912 169.45016149 65.54906339 166.984375 63.9921875 C155.61137661 56.87706043 144.05190019 50.64891934 131.66015625 45.5078125 C128.59006773 44.22282896 125.57728684 42.85416977 122.5625 41.4453125 C118.74306076 39.6935813 114.95134777 38.27239905 110.94921875 37.0078125 C107.56348793 35.85697228 104.25322932 34.53129958 100.9375 33.1953125 C100.286604 32.93331055 99.63570801 32.67130859 98.96508789 32.40136719 C96.1519554 31.26521963 93.34300045 30.11958955 90.5390625 28.9609375 C86.58424879 27.33908961 82.67108051 25.88047995 78.5625 24.6953125 C71.16266005 22.55939655 63.97803645 19.73142935 56.94140625 16.609375 C48.13447378 12.96313133 38.84702512 10.93552649 29.375 10.1328125 C28.385 9.6378125 28.385 9.6378125 27.375 9.1328125 C24.39189337 9.02101881 21.43293933 8.96867083 18.44921875 8.96484375 C17.55064651 8.96151535 16.65207428 8.95818695 15.72627258 8.95475769 C13.81548576 8.94968474 11.90469004 8.94734948 9.99389648 8.94750977 C7.11231114 8.94534984 4.23112555 8.92727289 1.34960938 8.90820312 C-14.51042728 7.79151085 -14.51042728 7.79151085 -28.625 12.1328125 Z M208.375 93.1328125 C207.1000346 97.23091559 206.17464318 101.20469822 205.5 105.4453125 C202.53574205 122.03158029 192.31957025 136.349301 178.68359375 146.046875 C175.97023451 147.62393924 173.26384034 148.90736028 170.375 150.1328125 C169.3025 150.61621094 168.23 151.09960938 167.125 151.59765625 C159.3973642 154.65651209 152.37326736 155.58945806 144.0625 155.6328125 C143.15588623 155.63909668 142.24927246 155.64538086 141.31518555 155.65185547 C125.70732642 155.35879021 107.48208011 147.23989261 96.375 136.1328125 C95.385 136.1328125 94.395 136.1328125 93.375 136.1328125 C93.375 135.4728125 93.375 134.8128125 93.375 134.1328125 C80.21774 127.29487884 67.42958591 121.51311391 52.4765625 120.37890625 C50.375 120.1328125 50.375 120.1328125 48.375 119.1328125 C46.87920396 118.93188467 45.37803276 118.76945184 43.875 118.6328125 C39.59722222 118.24392361 39.59722222 118.24392361 37.375 117.1328125 C35.60925633 116.8117682 33.83707693 116.52576186 32.0625 116.2578125 C27.58480626 115.54545213 23.21563843 114.65002946 18.8125 113.5703125 C10.18845075 111.44079241 10.18845075 111.44079241 1.375 111.1328125 C-2.42666458 113.77070221 -4.50033298 116.6341444 -5.625 121.1328125 C-5.14115732 127.58404825 -0.78351773 132.39423359 3.0625 137.3203125 C3.51036865 137.89491211 3.9582373 138.46951172 4.41967773 139.06152344 C5.32469436 140.22131297 6.23068346 141.38034438 7.13769531 142.53857422 C8.17948636 143.88089772 9.19800222 145.2412389 10.2109375 146.60546875 C14.69055427 152.51410354 19.78613265 157.75238493 25 163.0078125 C25.72904541 163.74612305 26.45809082 164.48443359 27.20922852 165.24511719 C33.34653869 171.99771556 33.34653869 171.99771556 41.375 175.1328125 C41.375 175.7928125 41.375 176.4528125 41.375 177.1328125 C49.60637352 182.92688216 59.4963224 187.94272831 69.375 190.1328125 C69.375 190.7928125 69.375 191.4528125 69.375 192.1328125 C70.40625 192.6484375 71.4375 193.1640625 72.5 193.6953125 C76.21877567 195.78476658 78.53706025 198.38251298 81.11328125 201.7421875 C81.52964844 202.20109375 81.94601562 202.66 82.375 203.1328125 C83.035 203.1328125 83.695 203.1328125 84.375 203.1328125 C84.6225 203.8340625 84.87 204.5353125 85.125 205.2578125 C86.3247752 208.24915895 86.3247752 208.24915895 88.375 211.1328125 C92.87084544 217.87658065 93.47451122 224.1678493 92.375 232.1328125 C89.11305636 241.44665801 83.37637703 249.34194457 77.51171875 257.171875 C75.85002193 259.47455542 74.51496684 261.55056716 73.375 264.1328125 C72.715 264.1328125 72.055 264.1328125 71.375 264.1328125 C71.375 264.7928125 71.375 265.4528125 71.375 266.1328125 C70.715 266.1328125 70.055 266.1328125 69.375 266.1328125 C69.375 266.7928125 69.375 267.4528125 69.375 268.1328125 C68.715 268.1328125 68.055 268.1328125 67.375 268.1328125 C67.375 268.7928125 67.375 269.4528125 67.375 270.1328125 C66.83101562 270.38160156 66.28703125 270.63039063 65.7265625 270.88671875 C62.88604505 272.39190989 60.37296231 274.2120925 57.75 276.0703125 C52.38947651 279.68099397 47.62519965 281.68876285 41.375 283.1328125 C40.3025 283.4834375 39.23 283.8340625 38.125 284.1953125 C32.2852256 285.6552561 26.33885766 286.35527766 20.375 287.1328125 C20.375 291.84734494 21.11200633 293.15018747 24.15625 296.5390625 C27.93184896 299.25111246 32.20970818 299.56083007 36.71875 300.328125 C41.44191144 301.3676242 45.19913598 303.37224566 49.43359375 305.64453125 C54.22707832 308.06991986 59.22708559 309.6382567 64.375 311.1328125 C65.45974609 311.45572266 65.45974609 311.45572266 66.56640625 311.78515625 C71.96883872 313.18958367 77.38312851 313.45356255 82.94384766 313.73901367 C88.71436023 314.04669425 94.40899201 314.68066003 100.140625 315.40234375 C104.71588394 315.96792004 109.27094309 316.35557897 113.875 316.6328125 C126.42968424 317.49272238 137.39433937 320.83939254 146.375 330.1328125 C153.77041041 338.65175641 157.51907405 350.27225824 157.3359375 361.53515625 C157.12424031 363.76581738 156.77572639 365.92881733 156.375 368.1328125 C156.28476562 368.88691406 156.19453125 369.64101563 156.1015625 370.41796875 C154.61338267 380.58719759 149.04545716 389.8275229 143.5 398.328125 C141.54211339 401.46890143 139.97776939 404.80129185 138.375 408.1328125 C138.02953125 408.78378906 137.6840625 409.43476562 137.328125 410.10546875 C135.1149046 414.81309739 134.41840416 420.11046835 134 425.2578125 C132.29064514 442.14505963 124.87560378 460.23565078 115 473.9453125 C112.29892467 477.93634728 111.46020228 480.2261702 112.375 485.1328125 C115.41355461 494.49940661 115.41355461 494.49940661 122.375 501.1328125 C127.13940333 501.04773387 130.56751462 500.01727112 134.375 497.1328125 C134.375 496.4728125 134.375 495.8128125 134.375 495.1328125 C135.035 495.1328125 135.695 495.1328125 136.375 495.1328125 C137.3340625 493.5240625 137.3340625 493.5240625 138.3125 491.8828125 C140.78519338 487.73938035 143.74585166 484.29189331 147 480.7578125 C147.47945068 480.23413086 147.95890137 479.71044922 148.45288086 479.17089844 C150.65529667 476.81048073 152.67497678 474.93282798 155.375 473.1328125 C159.1893555 473.3061923 161.25027136 474.05180966 164.47265625 476.14453125 C168.884061 478.7278387 173.04668083 478.76185307 178.0625 478.8203125 C179.73316034 478.86255908 181.40374327 478.90801651 183.07421875 478.95703125 C183.80471436 478.96822998 184.53520996 478.97942871 185.2878418 478.9909668 C187.375 479.1328125 187.375 479.1328125 189.34765625 479.6262207 C191.64033687 480.19911476 193.75249922 480.32623683 196.11328125 480.4140625 C197.01626953 480.45144531 197.91925781 480.48882813 198.84960938 480.52734375 C200.25436523 480.57955078 200.25436523 480.57955078 201.6875 480.6328125 C203.53788697 480.70244379 205.38815589 480.77529578 207.23828125 480.8515625 C208.05594971 480.88185547 208.87361816 480.91214844 209.71606445 480.94335938 C212.375 481.1328125 212.375 481.1328125 215.75805664 481.63989258 C221.31141148 482.3967082 226.83626071 482.31877905 232.43359375 482.31811523 C234.47417605 482.32028504 236.51420164 482.33843717 238.5546875 482.35742188 C249.4378057 482.40458527 260.51680133 482.17654205 270.375 477.1328125 C270.705 472.5128125 271.035 467.8928125 271.375 463.1328125 C272.365 462.8028125 273.355 462.4728125 274.375 462.1328125 C275.035 462.4628125 275.695 462.7928125 276.375 463.1328125 C277.12109375 465.390625 277.12109375 465.390625 277.8125 468.2578125 C278.98639292 472.82360708 280.4027119 476.85952161 282.375 481.1328125 C282.875 482.3828125 283.375 483.6328125 283.875 484.8828125 C285.51589745 488.55122733 285.51589745 488.55122733 288.375 491.1328125 C291.24515458 492.11470749 292.88243904 492.26500138 295.8203125 491.4765625 C303.37862211 487.50093787 306.5592635 475.62737126 309.31640625 468.04296875 C310.15748619 465.73077482 311.05452728 463.49942348 312.0625 461.2578125 C313.46381369 457.92135134 314.39895236 454.6181899 315.375 451.1328125 C315.77898371 449.7467333 316.18530501 448.36133363 316.59375 446.9765625 C316.80386719 446.26371094 317.01398438 445.55085938 317.23046875 444.81640625 C317.66015625 443.36067708 318.08984375 441.90494792 318.51953125 440.44921875 C318.93959824 439.02408351 319.3583288 437.59855358 319.77563477 436.17260742 C320.34147061 434.24692168 320.91843565 432.32451619 321.49609375 430.40234375 C322.23741457 427.64463029 322.70424542 425.15410748 322.9375 422.3203125 C323.27355072 418.33571105 323.27355072 418.33571105 324.375 416.1328125 C324.64425868 414.12229859 324.86359977 412.10500752 325.05859375 410.0859375 C325.18169922 408.84714844 325.30480469 407.60835937 325.43164062 406.33203125 C325.62016602 404.37716797 325.62016602 404.37716797 325.8125 402.3828125 C326.66035399 393.63511261 327.62448188 384.94087466 328.94970703 376.2512207 C330.32882136 367.40172579 330.32882136 367.40172579 327.5625 359.2578125 C323.85975393 356.78931512 320.0592359 355.07784217 315.9765625 353.328125 C312.30522546 351.64129447 309.21123835 349.80528919 307.375 346.1328125 C306.715 346.1328125 306.055 346.1328125 305.375 346.1328125 C305.12363281 345.28847656 304.87226562 344.44414062 304.61328125 343.57421875 C303.2717575 339.84588303 301.49669752 336.51038873 299.5625 333.0703125 C296.92771007 328.30276535 294.75505519 323.68491079 293 318.5078125 C287.36844254 303.17641528 274.81203319 291.91360017 260.35595703 285.08740234 C250.42913697 280.3633775 242.67705314 274.54476084 236.75 265.1953125 C236.34523438 264.56753906 235.94046875 263.93976563 235.5234375 263.29296875 C231.82174016 256.33025233 232.04163996 249.63432409 232.0625 241.9453125 C232.04638672 240.77677734 232.03027344 239.60824219 232.01367188 238.40429688 C232.00943434 230.80638963 233.00875302 224.33553422 235.375 217.1328125 C235.8755744 215.48324711 236.37558939 213.83351185 236.875 212.18359375 C237.37276163 210.60345981 237.87274243 209.02402313 238.375 207.4453125 C238.74625 206.26098633 238.74625 206.26098633 239.125 205.05273438 C240.29452748 201.35836762 241.51759114 197.71924326 242.9375 194.11328125 C245.95587717 186.11670875 246.76787112 178.25799337 247.0625 169.7578125 C247.10084961 168.71141602 247.13919922 167.66501953 247.17871094 166.58691406 C247.70136342 149.56707222 248.17543456 131.83346434 238.375 117.1328125 C237.715 117.1328125 237.055 117.1328125 236.375 117.1328125 C236.045 116.1428125 235.715 115.1528125 235.375 114.1328125 C234.715 114.1328125 234.055 114.1328125 233.375 114.1328125 C233.375 113.4728125 233.375 112.8128125 233.375 112.1328125 C232.715 112.1328125 232.055 112.1328125 231.375 112.1328125 C231.375 111.4728125 231.375 110.8128125 231.375 110.1328125 C230.715 110.1328125 230.055 110.1328125 229.375 110.1328125 C229.375 109.4728125 229.375 108.8128125 229.375 108.1328125 C228.715 108.1328125 228.055 108.1328125 227.375 108.1328125 C227.375 107.4728125 227.375 106.8128125 227.375 106.1328125 C225.18432248 104.21189365 222.9886321 102.41210945 220.6875 100.6328125 C220.06166016 100.13394531 219.43582031 99.63507813 218.79101562 99.12109375 C215.4522866 96.51303945 212.46224891 94.44573376 208.375 93.1328125 Z M-11.625 134.1328125 C-12.181875 135.2775 -12.181875 135.2775 -12.75 136.4453125 C-15.56541978 140.48074751 -18.9221909 141.16076171 -23.625 142.1328125 C-26.75958401 142.49793133 -29.87250779 142.75089432 -33.0234375 142.921875 C-35.73762929 143.03784185 -35.73762929 143.03784185 -38.625 144.1328125 C-42.23833053 144.44215828 -45.85225331 144.64233385 -49.47265625 144.8515625 C-52.52441325 144.93003589 -52.52441325 144.93003589 -54.625 146.1328125 C-56.22527963 146.31645115 -57.83084757 146.45504754 -59.4375 146.5703125 C-77.33442065 148.08700069 -96.231794 151.59193774 -112.625 159.1328125 C-113.91438422 159.59752806 -115.20621507 160.05549316 -116.5 160.5078125 C-124.66145108 163.53468077 -133.81763038 167.91690965 -137.625 176.1328125 C-138.23982197 179.55824921 -137.73662311 180.92742598 -136.0625 184.0078125 C-131.38550615 190.00395847 -126.04482986 194.73475225 -120.00390625 199.32421875 C-113.85680911 203.99762758 -107.89344936 208.90726535 -101.9375 213.8203125 C-89.9697285 224.31476911 -89.9697285 224.31476911 -75.625 229.1328125 C-75.625 229.7928125 -75.625 230.4528125 -75.625 231.1328125 C-69.05697639 233.92014532 -62.43384291 236.14722844 -55.6015625 238.1953125 C-52.13103289 239.28839269 -48.93992852 240.63784474 -45.625 242.1328125 C-43.66145488 242.87107454 -41.69158801 243.58696306 -39.71484375 244.2890625 C-26.28163928 249.71256187 -14.05454347 258.78433061 -3.21875 268.23046875 C6.6246435 276.56308824 15.86191911 280.11623455 28.671875 279.4921875 C33.32895553 279.04023454 37.13922531 278.07080208 41.375 276.1328125 C42.16648437 275.79636719 42.95796875 275.45992187 43.7734375 275.11328125 C47.36498084 273.56159505 50.88368786 271.89808268 54.375 270.1328125 C54.375 269.4728125 54.375 268.8128125 54.375 268.1328125 C55.035 267.9471875 55.695 267.7615625 56.375 267.5703125 C60.64405268 265.52472476 64.11663706 262.56096607 67.375 259.1328125 C67.375 258.4728125 67.375 257.8128125 67.375 257.1328125 C68.035 257.1328125 68.695 257.1328125 69.375 257.1328125 C70.99085811 255.19307501 70.99085811 255.19307501 72.625 252.6953125 C73.24246094 251.78652344 73.85992188 250.87773437 74.49609375 249.94140625 C75.11613281 249.01457031 75.73617187 248.08773437 76.375 247.1328125 C77.22771484 245.88177734 77.22771484 245.88177734 78.09765625 244.60546875 C80.27342175 241.39335828 80.27342175 241.39335828 82.375 238.1328125 C82.75140625 237.54628906 83.1278125 236.95976562 83.515625 236.35546875 C85.86081527 230.28995391 85.41178891 221.55180477 83.53515625 215.36328125 C76.70981689 202.24116415 63.63836108 195.35821014 50.52099609 189.98388672 C44.03447562 187.21455223 38.64781481 183.34073075 33.0703125 179.07421875 C30.65814433 176.93799263 30.65814433 176.93799263 28.375 177.1328125 C28.375 176.4728125 28.375 175.8128125 28.375 175.1328125 C26.95852329 173.7004847 26.95852329 173.7004847 25.0625 172.1953125 C16.90717337 165.22568939 9.49464303 158.02017306 3.71484375 148.93359375 C3.27269531 148.33933594 2.83054687 147.74507812 2.375 147.1328125 C1.715 147.1328125 1.055 147.1328125 0.375 147.1328125 C0.189375 146.4728125 0.00375 145.8128125 -0.1875 145.1328125 C-2.22537719 140.87985141 -5.11106554 137.28674477 -8.625 134.1328125 C-9.615 134.1328125 -10.605 134.1328125 -11.625 134.1328125 Z M253.375 137.1328125 C253.16529441 141.27374948 253.16529441 141.27374948 254.375 145.1328125 C254.47238781 147.21433917 254.50576841 149.29900984 254.5078125 151.3828125 C254.50910156 152.630625 254.51039063 153.8784375 254.51171875 155.1640625 C254.50785156 156.47375 254.50398438 157.7834375 254.5 159.1328125 C254.50580078 161.09734375 254.50580078 161.09734375 254.51171875 163.1015625 C254.51042969 164.349375 254.50914062 165.5971875 254.5078125 166.8828125 C254.50668457 168.03265625 254.50555664 169.1825 254.50439453 170.3671875 C254.375 173.1328125 254.375 173.1328125 253.375 175.1328125 C253.19364052 176.81686486 253.05395471 178.50553088 252.9375 180.1953125 C252.24473183 188.25661479 250.52162587 195.10884868 247.390625 202.5625 C246.01493698 206.04404892 244.994417 209.59624102 243.98828125 213.19921875 C243.375 215.1328125 243.375 215.1328125 242.375 216.1328125 C242.21 217.2878125 242.045 218.4428125 241.875 219.6328125 C241.375 223.1328125 241.375 223.1328125 240.375 224.1328125 C237.43096621 235.19980084 236.48393519 247.55538779 241.375 258.1328125 C241.69210937 258.88046875 242.00921875 259.628125 242.3359375 260.3984375 C247.19107994 270.521926 256.50489358 275.42993606 266.125 280.41015625 C281.11660313 288.35642666 292.6877401 298.41031543 298.48046875 314.73046875 C299.45716956 317.3534862 300.65444058 319.77117521 301.9375 322.2578125 C304.09412412 326.46456078 305.80652549 330.67504284 307.375 335.1328125 C308.035 335.1328125 308.695 335.1328125 309.375 335.1328125 C310.035 337.1128125 310.695 339.0928125 311.375 341.1328125 C312.035 341.1328125 312.695 341.1328125 313.375 341.1328125 C313.705 342.1228125 314.035 343.1128125 314.375 344.1328125 C318.18642658 347.05786081 321.76524 348.81573821 326.375 350.1328125 C328.74079107 348.32538258 329.33247953 347.42869079 329.76318359 344.43164062 C329.76656738 343.35333984 329.76995117 342.27503906 329.7734375 341.1640625 C329.77939941 339.96193115 329.78536133 338.7597998 329.79150391 337.52124023 C329.77780762 336.23805908 329.76411133 334.95487793 329.75 333.6328125 C329.74274902 332.32449463 329.73549805 331.01617676 329.72802734 329.66821289 C329.59027546 319.93155056 328.68331931 310.62768029 326.75976562 301.09423828 C326.16837027 298.07947289 325.71869451 295.04367469 325.25 292.0078125 C324.95049237 288.76248389 324.95049237 288.76248389 323.375 286.1328125 C322.74627998 282.70515217 322.18474835 279.27432588 321.65625 275.83007812 C320.79655476 270.603314 319.35386903 266.04890337 317.375 261.1328125 C315.24208807 255.2475555 313.62452531 249.32271695 312.21875 243.22265625 C311.37648588 240.13825386 310.31585131 237.2346851 309.16894531 234.25463867 C308.09870093 231.39440069 307.16916535 228.49566099 306.23291016 225.58935547 C303.73202345 217.84677017 300.98639237 210.4365248 297.375 203.1328125 C296.79464897 201.90147672 296.21529508 200.66967067 295.63671875 199.4375 C291.30583704 190.35340079 286.24590791 182.08526846 280.52832031 173.81542969 C276.3352641 167.69804116 272.49585666 161.37912325 268.8125 154.9453125 C265.09653122 148.52151894 261.06611218 142.01090866 255.375 137.1328125 C254.715 137.1328125 254.055 137.1328125 253.375 137.1328125 Z M17.375 305.1328125 C15.0976499 307.94791243 15.0976499 307.94791243 15.375 311.1328125 C14.715 311.1328125 14.055 311.1328125 13.375 311.1328125 C12.65183594 312.57914062 12.65183594 312.57914062 11.9140625 314.0546875 C6.375 325.1328125 6.375 325.1328125 5.24609375 327.1796875 C4.02302115 329.92200274 3.45420839 332.70312811 2.8125 335.6328125 C2.56371094 336.756875 2.31492187 337.8809375 2.05859375 339.0390625 C1.83300781 340.06 1.60742188 341.0809375 1.375 342.1328125 C1.13652344 342.86371094 0.89804687 343.59460938 0.65234375 344.34765625 C0.10797627 346.49932771 0.10797627 346.49932771 2.5 349.1953125 C4.77853664 351.86304018 7.34459234 353.39213191 10.375 355.1328125 C11.17679688 355.63941406 11.97859375 356.14601563 12.8046875 356.66796875 C13.61164063 357.17199219 14.41859375 357.67601562 15.25 358.1953125 C16.05179688 358.70191406 16.85359375 359.20851563 17.6796875 359.73046875 C23.58711087 362.8040412 29.90231314 363.67138204 36.4375 364.3828125 C37.2622583 364.47288574 38.0870166 364.56295898 38.93676758 364.65576172 C46.35176577 365.34569578 53.07260268 364.68144488 60.375 363.1328125 C58.67808057 350.75661349 46.79099298 338.73550384 39.375 329.1328125 C38.34632813 327.79669922 38.34632813 327.79669922 37.296875 326.43359375 C35.05902069 323.54555204 32.80142393 320.67355433 30.5390625 317.8046875 C29.62253906 316.63679688 29.62253906 316.63679688 28.6875 315.4453125 C28.11 314.71054687 27.5325 313.97578125 26.9375 313.21875 C25.5629021 311.3836618 24.36692322 309.53294644 23.1875 307.5703125 C22.2903125 306.36375 22.2903125 306.36375 21.375 305.1328125 C20.055 305.1328125 18.735 305.1328125 17.375 305.1328125 Z M35.375 308.1328125 C35.91485616 312.01302866 36.87777372 314.19517259 39.375 317.1953125 C40.00792969 317.97777344 40.64085937 318.76023437 41.29296875 319.56640625 C41.98003906 320.41332031 42.66710937 321.26023437 43.375 322.1328125 C60.12614401 343.71423094 75.9495693 367.17456576 83.59765625 393.6328125 C85.18882347 398.75013422 87.33404948 403.66349002 89.4140625 408.59765625 C91.59609532 413.86951417 93.23180621 419.09997675 94.6640625 424.62109375 C95.60078201 427.93049289 97.01414495 430.97562878 98.375 434.1328125 C99.4249116 437.40904267 100.4141227 440.70077108 101.40234375 443.99609375 C102.16836325 446.46642973 102.99086981 448.85406567 103.9375 451.2578125 C105.82624332 456.09382562 107.07396657 461.11322252 108.375 466.1328125 C109.695 466.1328125 111.015 466.1328125 112.375 466.1328125 C116.84005998 457.65421547 120.67268212 449.36679921 123.375 440.1328125 C123.71144531 439.03324219 124.04789063 437.93367187 124.39453125 436.80078125 C125.45277883 432.84183911 126.11677512 428.92507399 126.75 424.8828125 C128.95394618 411.80437307 133.70833842 399.56382505 141.4375 388.6953125 C147.85218641 379.13252141 149.8425944 370.75401005 150 359.3828125 C150.02304199 358.41263184 150.04608398 357.44245117 150.06982422 356.44287109 C149.98075731 348.17095907 147.3942929 342.53919424 141.9375 336.3828125 C140.6690625 335.2690625 140.6690625 335.2690625 139.375 334.1328125 C137.9209375 332.8334375 137.9209375 332.8334375 136.4375 331.5078125 C128.93418783 325.68891735 121.03499865 323.90660662 111.75 323.5703125 C103.94550057 323.2496731 103.94550057 323.2496731 100.953125 322.63671875 C96.08846592 321.68589902 91.09212298 321.72776343 86.1484375 321.52734375 C85.3234375 321.48996094 84.4984375 321.45257813 83.6484375 321.4140625 C82.89997559 321.38376953 82.15151367 321.35347656 81.38037109 321.32226562 C79.375 321.1328125 79.375 321.1328125 76.375 320.1328125 C74.77192111 320.03066942 73.16741621 319.95018529 71.5625 319.8828125 C61.47283863 319.02866127 52.36996002 314.8017766 43.5078125 310.13671875 C40.8412029 308.88155635 38.30528049 308.36415043 35.375 308.1328125 Z M0.375 358.1328125 C-1.53680964 362.17381232 -1.88209299 365.42312057 -1.890625 369.875 C-1.89320313 371.18984375 -1.89578125 372.5046875 -1.8984375 373.859375 C-1.89424805 374.54290039 -1.89005859 375.22642578 -1.88574219 375.93066406 C-1.87521048 377.96711311 -1.88556131 380.00264391 -1.8984375 382.0390625 C-1.90785582 391.17510757 -1.30916054 400.13552072 0.375 409.1328125 C0.705 409.4628125 1.035 409.7928125 1.375 410.1328125 C1.5617804 411.46102868 1.69880828 412.79635474 1.8125 414.1328125 C2.61231343 421.80375041 4.39072705 428.49197107 7.375 435.6015625 C8.34988663 438.06924428 9.10108832 440.51569782 9.8125 443.0703125 C11.15839421 447.74436904 13.05059277 452.01574969 15.12109375 456.41015625 C16.30343913 458.97742954 17.35619717 461.5596242 18.375 464.1953125 C20.05587244 468.48560385 22.05482772 472.53734058 24.16015625 476.6328125 C25.35729093 479.09636939 26.34764011 481.57052898 27.3125 484.1328125 C31.02817603 493.57743922 36.49157255 503.68044331 45.8984375 508.3984375 C50.04351858 509.86726503 52.47991654 510.39802241 56.75 509.1328125 C64.63750631 503.12328389 67.84848545 494.27242485 71.03125 485.21875 C72.45673692 481.94510272 73.84700767 479.65616631 76.375 477.1328125 C78.62890625 476.609375 78.62890625 476.609375 80.9375 476.7578125 C81.70191406 476.79132813 82.46632813 476.82484375 83.25390625 476.859375 C85.375 477.1328125 85.375 477.1328125 88.375 478.1328125 C90.22727252 478.22638942 92.0828718 478.26275159 93.9375 478.2578125 C95.39349609 478.26167969 95.39349609 478.26167969 96.87890625 478.265625 C99.37452953 478.29932203 99.37452953 478.29932203 101.375 477.1328125 C102.91121279 473.51173949 101.98091406 470.63948885 101 466.9453125 C100.72414063 465.87925781 100.44828125 464.81320312 100.1640625 463.71484375 C99.62430202 461.22558817 99.62430202 461.22558817 98.375 460.1328125 C98.189375 458.616875 98.189375 458.616875 98 457.0703125 C97.44243663 453.55766326 96.50725098 450.6497147 95.19140625 447.36328125 C94.26710633 444.83804079 93.6024296 442.30052846 92.9375 439.6953125 C91.7920731 435.34149088 90.25994872 431.45124913 88.34765625 427.38671875 C86.9870997 424.23394314 86.08079301 420.99766374 85.18359375 417.6875 C84.14162864 414.39549429 82.74760568 411.30062412 81.375 408.1328125 C80.42193488 405.65804676 79.48325732 403.18188805 78.5625 400.6953125 C78.30750732 400.0137207 78.05251465 399.33212891 77.78979492 398.62988281 C76.4273597 394.9850454 75.08307141 391.33429903 73.7578125 387.67578125 C73.49460205 386.95640381 73.2313916 386.23702637 72.96020508 385.49584961 C72.45700725 384.11980626 71.9591657 382.74178855 71.4675293 381.36157227 C69.63278676 376.29496146 69.63278676 376.29496146 66.375 372.1328125 C63.7103447 371.74168978 61.44178265 371.59857232 58.77734375 371.62890625 C58.02844376 371.61948502 57.27954376 371.61006378 56.50794983 371.60035706 C54.10919046 371.57167967 51.71141681 371.56862668 49.3125 371.5703125 C29.67373518 371.54027462 29.67373518 371.54027462 21.375 368.1328125 C19.83972656 367.53339844 19.83972656 367.53339844 18.2734375 366.921875 C13.24935128 364.60426247 8.52261864 362.15147374 3.93359375 359.05078125 C2.38925353 357.96364852 2.38925353 357.96364852 0.375 358.1328125 Z M-12.625 382.1328125 C-14.47086777 385.28250751 -14.89670838 387.62165924 -14.875 391.2578125 C-14.88015625 392.12664062 -14.8853125 392.99546875 -14.890625 393.890625 C-14.8356341 396.33485137 -14.8356341 396.33485137 -12.625 398.1328125 C-10.51679203 397.8142948 -10.51679203 397.8142948 -8.625 397.1328125 C-8.76569196 395.00746591 -8.91270921 392.88253721 -9.0625 390.7578125 C-9.14371094 389.57445312 -9.22492188 388.39109375 -9.30859375 387.171875 C-9.43584936 384.21762349 -9.43584936 384.21762349 -10.625 382.1328125 C-11.285 382.1328125 -11.945 382.1328125 -12.625 382.1328125 Z "
     fill="#000000"
     transform="translate(611.625,144.8671875)"
     id="path2" />
  <path
     d="M0 0 C1.01094727 0.00410889 2.02189453 0.00821777 3.06347656 0.01245117 C24.57305333 0.17116195 46.84465096 1.96965096 63 18.125 C63.48046875 20.89453125 63.48046875 20.89453125 63 24.125 C61.13598169 26.3219849 59.48700293 27.98979239 57.3125 29.8125 C56.78205078 30.28494141 56.25160156 30.75738281 55.70507812 31.24414062 C48.08853942 37.90744381 48.08853942 37.90744381 43 38.4375 C39.98030242 38.12294817 37.7354871 37.41228805 35 36.125 C34.835 37.011875 34.67 37.89875 34.5 38.8125 C32.64313333 42.91308056 30.83001665 43.59572639 27.0234375 45.69140625 C24.09703265 47.76474714 22.82719774 50.36239777 21.30078125 53.55078125 C20 55.125 20 55.125 17.65625 55.578125 C14.2873244 55.00342593 12.78108924 53.77061233 10.1875 51.5625 C8.87265625 50.45648438 8.87265625 50.45648438 7.53125 49.328125 C6.6959375 48.60109375 5.860625 47.8740625 5 47.125 C4.3503125 46.56296875 3.700625 46.0009375 3.03125 45.421875 C1.76839499 44.31955241 0.51082045 43.21115926 -0.7421875 42.09765625 C-2.50155194 40.56049528 -4.27498681 39.05287731 -6.0703125 37.55859375 C-26.30672913 20.70381227 -26.30672913 20.70381227 -27.3359375 13.90625 C-27.44152431 7.73998029 -27.44152431 7.73998029 -25.25 4.6875 C-17.6276292 -0.60581306 -8.99670726 -0.04421907 0 0 Z M-19 10.125 C-19 14.6173231 -17.66283017 16.84387295 -14.625 19.9375 C-10.47873694 23.83811372 -6.06364137 27.39198489 -1.61328125 30.9375 C1.31460419 33.38834581 3.87007617 36.02736542 6.3671875 38.91015625 C8.71273053 40.65528516 10.13482036 40.51531639 13 40.125 C15.48882849 38.98619377 15.48882849 38.98619377 17.875 37.375 C20.89760662 35.45480895 23.89852915 33.61407837 27.0625 31.9375 C30.2666161 30.39400193 30.2666161 30.39400193 31 27.125 C31.59167969 27.269375 32.18335938 27.41375 32.79296875 27.5625 C38.86835773 29.23640579 38.86835773 29.23640579 45 29.125 C47.64649615 27.40895618 50.03074334 25.59933977 52 23.125 C52 21.805 52 20.485 52 19.125 C34.17187015 7.77104197 0.98079014 0.13460493 -19 10.125 Z "
     fill="#000000"
     transform="translate(622,169.875)"
     id="path3" />
  <path
     d="M0 0 C0.90878906 0.69416016 0.90878906 0.69416016 1.8359375 1.40234375 C1.8359375 2.06234375 1.8359375 2.72234375 1.8359375 3.40234375 C2.4959375 3.40234375 3.1559375 3.40234375 3.8359375 3.40234375 C5.4921875 5.6328125 5.4921875 5.6328125 7.3359375 8.58984375 C7.944375 9.55277344 8.5528125 10.51570313 9.1796875 11.5078125 C15.06193585 21.78787389 14.40080133 35.76866793 12.06640625 47.15625 C7.60589272 58.74097595 -2.02642861 71.14192272 -11.1640625 79.40234375 C-11.8240625 79.40234375 -12.4840625 79.40234375 -13.1640625 79.40234375 C-13.1640625 80.06234375 -13.1640625 80.72234375 -13.1640625 81.40234375 C-13.8240625 81.40234375 -14.4840625 81.40234375 -15.1640625 81.40234375 C-15.1640625 82.06234375 -15.1640625 82.72234375 -15.1640625 83.40234375 C-15.8240625 83.40234375 -16.4840625 83.40234375 -17.1640625 83.40234375 C-17.1640625 84.06234375 -17.1640625 84.72234375 -17.1640625 85.40234375 C-18.52734375 86.7421875 -18.52734375 86.7421875 -20.4765625 88.33984375 C-25.16863532 92.30426892 -29.38623638 96.63245241 -33.6484375 101.046875 C-35.81456615 103.07509795 -37.44537517 104.30343509 -40.1640625 105.40234375 C-38.5398581 101.25394559 -35.51093869 98.53005699 -32.37890625 95.4921875 C-31.80378799 94.92464249 -31.22866974 94.35709747 -30.63612366 93.77235413 C-28.18788402 91.35654781 -25.72823636 88.9524932 -23.26879883 86.5480957 C-0.00632248 63.80935405 -0.00632248 63.80935405 9.37890625 33.57763672 C9.47296067 22.19940273 6.9651954 12.78382206 -1.1640625 4.40234375 C-10.51798384 -2.6922783 -21.97011275 -2.83367758 -33.1640625 -1.59765625 C-55.3679485 2.77148031 -75.08864698 19.42957406 -91.1640625 34.40234375 C-92.53481433 35.59474497 -93.90964113 36.78248258 -95.2890625 37.96484375 C-102.20844581 44.02450408 -108.20612324 50.52918138 -113.9609375 57.703125 C-115.88013778 60.05448563 -117.8591959 62.29548234 -119.9140625 64.52734375 C-130.12879712 75.92226683 -138.91044486 88.54414636 -147.1640625 101.40234375 C-147.58284668 102.04526367 -148.00163086 102.68818359 -148.43310547 103.35058594 C-154.36141638 112.45966798 -159.54187424 121.72346901 -164.24365234 131.51904297 C-165.10863914 133.28893902 -166.01967028 135.03612019 -166.93359375 136.78125 C-183.75033124 168.93424469 -200.94914205 215.81465499 -191.1640625 252.40234375 C-188.49008352 259.85322756 -185.46071428 265.37014584 -178.4609375 269.3515625 C-170.11981962 273.16748208 -162.97849225 272.42835168 -154.484375 269.390625 C-137.99593854 262.36777243 -129.79100628 245.30682956 -122.6015625 229.90234375 C-120.79569725 226.06583794 -118.98511505 222.23166607 -117.1640625 218.40234375 C-116.70789551 217.44199219 -116.25172852 216.48164063 -115.78173828 215.4921875 C-115.34200684 214.58597656 -114.90227539 213.67976562 -114.44921875 212.74609375 C-114.05742432 211.93333984 -113.66562988 211.12058594 -113.26196289 210.28320312 C-112.1640625 208.40234375 -112.1640625 208.40234375 -110.1640625 207.40234375 C-113.95712864 229.30337007 -128.86835425 257.19916497 -146.875 270.68359375 C-153.97575652 275.08406258 -162.83055255 277.67017689 -171.1640625 276.40234375 C-179.69751453 274.04599272 -187.42018828 269.87364972 -191.9765625 262.08984375 C-193.05859375 260.0390625 -193.05859375 260.0390625 -194.1640625 257.40234375 C-194.55356079 256.53222656 -194.55356079 256.53222656 -194.95092773 255.64453125 C-197.86484879 248.29615687 -197.67284111 240.82800285 -197.6015625 233.02734375 C-197.59818878 232.31481445 -197.59481506 231.60228516 -197.59133911 230.86816406 C-197.51177654 219.26276778 -196.38396816 208.56818243 -193.1640625 197.40234375 C-192.64891206 195.50022393 -192.13464126 193.59786572 -191.62109375 191.6953125 C-184.80539918 166.99863029 -176.09801373 142.61004009 -163 120.50390625 C-161.2870685 117.61014538 -159.6816123 114.68266216 -158.1015625 111.71484375 C-146.54255759 90.47709873 -131.31254896 71.08491665 -115.45019531 52.91796875 C-114.23222175 51.48266505 -113.08232594 49.99039288 -111.9375 48.49609375 C-111.35226563 47.80515625 -110.76703125 47.11421875 -110.1640625 46.40234375 C-109.5040625 46.40234375 -108.8440625 46.40234375 -108.1640625 46.40234375 C-107.926875 45.8403125 -107.6896875 45.27828125 -107.4453125 44.69921875 C-105.87458553 41.88340333 -103.94934786 39.92278959 -101.6640625 37.65234375 C-100.87 36.853125 -100.0759375 36.05390625 -99.2578125 35.23046875 C-97.1640625 33.40234375 -97.1640625 33.40234375 -95.1640625 33.40234375 C-95.1640625 32.74234375 -95.1640625 32.08234375 -95.1640625 31.40234375 C-93.52973495 29.92465157 -91.82929882 28.51965056 -90.1015625 27.15234375 C-86.88032141 24.58028135 -83.68165246 22.01684684 -80.6015625 19.27734375 C-69.56069396 9.77645451 -56.59798312 1.95675324 -43.1640625 -3.59765625 C-42.32101562 -3.94828125 -41.47796875 -4.29890625 -40.609375 -4.66015625 C-26.10121996 -10.22238822 -13.02543248 -7.87537687 0 0 Z "
     fill="#000000"
     transform="translate(331.1640625,223.59765625)"
     id="path4" />
  <path
     d="M0 0 C2.375 0.875 2.375 0.875 4.375 3.875 C4 7.5625 4 7.5625 3.375 10.875 C1.725 11.535 0.075 12.195 -1.625 12.875 C-6.5 9.25 -6.5 9.25 -7.625 5.875 C-6.2501965 1.7505895 -4.50956548 -0.21474121 0 0 Z "
     fill="#000000"
     transform="translate(733.625,244.125)"
     id="path5" />
  <path
     d="M0 0 C2.86938614 2.88234048 3.4756435 5.17472984 3.5625 9.1875 C3.38631298 15.46311399 1.15674156 19.4057067 -3 24 C-6.44084424 27.07479698 -7.94732663 27.98153205 -12.5625 28.0625 C-16.87356529 26.72998891 -18.4982487 25.79053227 -21 22 C-22.06415229 16.4715991 -21.72423429 11.50640734 -18.9375 6.5625 C-14.17918326 0.0847915 -7.91799333 -2.94623008 0 0 Z "
     fill="#000000"
     transform="translate(706,296)"
     id="path6" />
  <path
     d="M0 0 C0.80115234 0.00926514 1.60230469 0.01853027 2.42773438 0.02807617 C8.92874048 0.29057611 13.65792155 1.87284632 18.25 6.6875 C20.15254343 9.54131514 20.84928331 11.06003747 20.76953125 14.453125 C19.0529499 21.83571546 13.69054838 29.72713441 7.375 33.9375 C3.65715066 35.24968212 0.4164467 34.9652254 -3.375 34.0625 C-8.55283477 31.06480618 -10.58809699 25.14829221 -12.5625 19.75 C-13.22185547 18.00396484 -13.22185547 18.00396484 -13.89453125 16.22265625 C-14.87568285 12.16812568 -14.88040036 9.70204943 -13.75 5.6875 C-9.92376193 0.19284416 -6.24373144 -0.15145302 0 0 Z M-5.75 10.6875 C-5.2871672 16.35720184 -4.10293095 20.03065146 -0.75 24.6875 C1.82269253 25.42548564 1.82269253 25.42548564 4.25 25.6875 C5.43143096 24.30414079 6.59465134 22.90521574 7.75 21.5 C8.3996875 20.72269531 9.049375 19.94539063 9.71875 19.14453125 C11.48103209 16.31678779 11.80633273 14.9559548 11.25 11.6875 C9.72997577 9.50912132 8.7088755 8.82327215 6.1640625 8.0703125 C1.23239548 7.51486877 -1.68277515 7.40747996 -5.75 10.6875 Z "
     fill="#000000"
     transform="translate(725.75,317.3125)"
     id="path7" />
  <path
     d="M0 0 C2.46590396 -0.00447578 4.93015013 -0.04128873 7.39575195 -0.07861328 C8.9836366 -0.08446626 10.57152952 -0.08844579 12.15942383 -0.09033203 C13.25000847 -0.11188858 13.25000847 -0.11188858 14.36262512 -0.13388062 C19.24273825 -0.08986923 21.69082299 0.90377505 25.10864258 4.37060547 C27.10864258 7.37060547 27.10864258 7.37060547 27.00708008 9.38623047 C26.0886174 13.30683234 25.12544187 16.62357732 22.98364258 20.05810547 C20.95843334 23.63597513 20.39286852 25.34437637 21.10864258 29.37060547 C22.96274835 31.47474163 22.96274835 31.47474163 25.10864258 33.37060547 C28.52628872 39.86413314 26.97928636 45.48899225 25.05786133 52.19873047 C24.10864258 54.37060547 24.10864258 54.37060547 21.10864258 56.37060547 C14.99052353 55.96961805 8.94019318 53.37328292 3.29614258 51.12060547 C2.5156958 50.81268066 1.73524902 50.50475586 0.93115234 50.1875 C-5.53074233 47.59741548 -11.75796559 44.66753381 -17.89135742 41.37060547 C-18.68799805 40.95037109 -19.48463867 40.53013672 -20.30541992 40.09716797 C-25.65566221 37.21061114 -31.15011933 34.19273831 -35.89135742 30.37060547 C-35.89135742 29.71060547 -35.89135742 29.05060547 -35.89135742 28.37060547 C-36.47401367 28.11537109 -37.05666992 27.86013672 -37.65698242 27.59716797 C-42.0985965 25.15893926 -45.97233003 21.13801381 -47.58666992 16.27685547 C-47.85586272 13.2338065 -47.39403834 11.00000097 -45.48120117 8.60498047 C-39.87871986 3.53196443 -34.21247269 2.03973145 -26.78588867 1.26904297 C-25.99994827 1.18536469 -25.21400787 1.1016864 -24.4042511 1.01547241 C-16.27459244 0.21320975 -8.16521189 -0.00166044 0 0 Z M-37.89135742 13.37060547 C-37.72315465 16.4747112 -37.19306731 18.01391428 -35.17651367 20.39794922 C-23.27499489 30.62614374 -9.19450724 37.134161 5.10864258 43.37060547 C5.96071289 43.74314453 6.8127832 44.11568359 7.69067383 44.49951172 C10.9118166 45.65995572 13.71488414 45.56639922 17.10864258 45.37060547 C18.35208572 44.32917673 18.35208572 44.32917673 18.42114258 42.05810547 C18.33106647 39.28594002 18.33106647 39.28594002 16.48364258 37.24560547 C14.12404353 35.20662514 14.12404353 35.20662514 10.92114258 34.05810547 C8.10864258 32.37060547 8.10864258 32.37060547 7.04614258 29.24560547 C7.13188841 23.92936358 7.84360786 18.74486775 11.64770508 14.75732422 C13.10319681 13.58810218 14.60311742 12.47465726 16.10864258 11.37060547 C16.10864258 10.71060547 16.10864258 10.05060547 16.10864258 9.37060547 C-12.17270008 5.82006305 -12.17270008 5.82006305 -37.89135742 13.37060547 Z "
     fill="#000000"
     transform="translate(571.891357421875,319.62939453125)"
     id="path8" />
  <path
     d="M0 0 C1.9375 1.625 1.9375 1.625 3 4 C2.6875 7.25 2.6875 7.25 2 10 C-1.48952818 11.54188454 -3.20095232 12.27792963 -6.875 11 C-9 9 -9 9 -9.5 6 C-9 3 -9 3 -7.875 1.125 C-5.08893958 -0.54663625 -3.18011138 -0.46376624 0 0 Z "
     fill="#000000"
     transform="translate(655,357)"
     id="path9" />
  <path
     d="M0 0 C8.94322922 7.18750323 13.28580496 16.80533639 14.546875 28.046875 C15.2216467 42.70354397 14.02522062 53.91533603 4.296875 65.234375 C-3.17160401 73.21792153 -10.94856725 77.09754282 -21.8671875 78.015625 C-32.48090495 78.14388745 -41.8501331 73.15040028 -49.453125 66.046875 C-58.30001229 56.02562214 -60.34268735 43.36695616 -59.8359375 30.4296875 C-59.02162625 18.65546389 -54.68834985 9.70102219 -46.078125 1.796875 C-32.42106089 -9.22461533 -14.43291391 -9.86656827 0 0 Z M-49.98828125 9.84375 C-57.03018888 19.12346501 -57.55038733 31.49321636 -56.109375 42.7265625 C-54.12453285 53.61011363 -49.16163184 62.72526682 -40.49609375 69.7265625 C-33.98434276 73.93492165 -26.17394802 76.44056989 -18.453125 75.046875 C-8.45556945 72.34180074 0.24875832 67.73294099 5.859375 58.734375 C6.44971303 57.51833308 7.0101756 56.28752431 7.546875 55.046875 C8.10181641 53.91572266 8.10181641 53.91572266 8.66796875 52.76171875 C13.10509515 42.58242876 13.35813278 29.70017958 9.51171875 19.2421875 C9.19332031 18.51773438 8.87492187 17.79328125 8.546875 17.046875 C8.21816406 16.28117188 7.88945312 15.51546875 7.55078125 14.7265625 C3.3574484 6.16577917 -3.45167421 0.15952621 -12.453125 -2.953125 C-15.4041445 -3.37450185 -18.28789159 -3.4306941 -21.265625 -3.390625 C-22.05952637 -3.38232666 -22.85342773 -3.37402832 -23.67138672 -3.36547852 C-34.97044596 -3.04076634 -42.67282729 1.28113213 -49.98828125 9.84375 Z "
     fill="#000000"
     transform="translate(187.453125,553.953125)"
     id="path10" />
  <text
     xml:space="preserve"
     style="font-style:normal;font-variant:normal;font-weight:normal;font-stretch:normal;font-size:53.3333px;font-family:'Plus Jakarta Sans';-inkscape-font-specification:'Plus Jakarta Sans';writing-mode:lr-tb;direction:ltr;fill:#000000;fill-opacity:1;stroke:#000000"
     id="text30"
     transform="rotate(-27.5,494.97991,555.26747)"><textPath
       xlink:href="#path32"
       id="textPath32"><tspan
         id="tspan30">thegroomer.ca</tspan></textPath></text>
  <text
     xml:space="preserve"
     id="text31"
     style="fill:#000000;text-orientation:auto;fill-opacity:1;stroke:#000000;font-size:53.33333333px;-inkscape-font-specification:'Plus Jakarta Sans';font-family:'Plus Jakarta Sans';writing-mode:lr-tb;direction:ltr;font-weight:normal;font-style:normal;font-stretch:normal;font-variant:normal;white-space:pre;shape-inside:url(#rect31)" />
  <path
     style="fill:#000000;fill-opacity:0;stroke:#000000"
     d="m 163.80463,865.29563 c 0,0 352.5964,409.97427 752.39074,-5.5527"
     id="path32" />
  <text
     xml:space="preserve"
     style="font-style:normal;font-variant:normal;font-weight:normal;font-stretch:normal;font-size:21.3333px;font-family:'Plus Jakarta Sans';-inkscape-font-specification:'Plus Jakarta Sans';writing-mode:lr-tb;direction:ltr;fill:#000000;fill-opacity:1;stroke:#000000"
     x="487.52194"
     y="956.72095"
     id="text32"><tspan
       sodipodi:role="line"
       id="tspan32"
       x="487.52194"
       y="956.72095">est.  2012</tspan></text>
  <path
     style="fill:#000000;fill-opacity:0;stroke:#000000;stroke-width:3.2;stroke-dasharray:none"
     d="m 217.06643,438.86559 c 0,0 35.41656,-84.89971 82.85034,-118.57083"
     id="path33"
     sodipodi:nodetypes="cc" />
</svg>
